<mxfile host="Electron" modified="2023-11-28T10:30:13.299Z" agent="Mozilla/5.0 (Windows NT 10.0; Win64; x64) AppleWebKit/537.36 (KHTML, like Gecko) draw.io/22.1.2 Chrome/114.0.5735.289 Electron/25.9.4 Safari/537.36" etag="qdt3YrrhmhVkkAc8t02v" version="22.1.2" type="device">
  <diagram id="43koFgIn_t4UnpplzxkW" name="Página-1">
    <mxGraphModel dx="1434" dy="854" grid="1" gridSize="10" guides="1" tooltips="1" connect="1" arrows="1" fold="1" page="1" pageScale="1" pageWidth="1169" pageHeight="827" math="0" shadow="0">
      <root>
        <mxCell id="0" />
        <mxCell id="1" parent="0" />
        <mxCell id="EP_qLhoWPCY1FDuJNaD8-1" value="Deus" style="swimlane;fontStyle=1;childLayout=stackLayout;horizontal=1;startSize=30;horizontalStack=0;resizeParent=1;resizeParentMax=0;resizeLast=0;collapsible=1;marginBottom=0;whiteSpace=wrap;html=1;rounded=0;shadow=0;glass=0;strokeColor=default;align=center;verticalAlign=middle;fontFamily=Helvetica;fontSize=13;fontColor=default;fillColor=#888daa;labelBackgroundColor=none;labelBorderColor=none;swimlaneFillColor=none;fillStyle=auto;" parent="1" vertex="1">
          <mxGeometry x="20" y="572" width="100" height="90" as="geometry">
            <mxRectangle x="10" y="120" width="80" height="30" as="alternateBounds" />
          </mxGeometry>
        </mxCell>
        <mxCell id="W9jZJQIDUN-E1ysLY_Tf-224" value="&lt;u&gt;id DEUS&lt;/u&gt;" style="text;strokeColor=none;fillColor=none;align=left;verticalAlign=middle;spacingLeft=4;spacingRight=4;overflow=hidden;points=[[0,0.5],[1,0.5]];portConstraint=eastwest;rotatable=0;whiteSpace=wrap;html=1;fontSize=12;fontFamily=Helvetica;fontColor=default;labelBackgroundColor=none;labelBorderColor=none;swimlaneFillColor=none;" parent="EP_qLhoWPCY1FDuJNaD8-1" vertex="1">
          <mxGeometry y="30" width="100" height="30" as="geometry" />
        </mxCell>
        <mxCell id="EP_qLhoWPCY1FDuJNaD8-2" value="Nome" style="text;strokeColor=none;fillColor=none;align=left;verticalAlign=middle;spacingLeft=4;spacingRight=4;overflow=hidden;points=[[0,0.5],[1,0.5]];portConstraint=eastwest;rotatable=0;whiteSpace=wrap;html=1;fontSize=12;fontFamily=Helvetica;fontColor=default;labelBackgroundColor=none;labelBorderColor=none;swimlaneFillColor=none;" parent="EP_qLhoWPCY1FDuJNaD8-1" vertex="1">
          <mxGeometry y="60" width="100" height="30" as="geometry" />
        </mxCell>
        <mxCell id="W9jZJQIDUN-E1ysLY_Tf-152" value="1" style="edgeStyle=orthogonalEdgeStyle;rounded=0;orthogonalLoop=1;jettySize=auto;html=1;endArrow=none;endFill=0;" parent="1" source="EP_qLhoWPCY1FDuJNaD8-5" target="W9jZJQIDUN-E1ysLY_Tf-150" edge="1">
          <mxGeometry x="-0.9657" y="-10" relative="1" as="geometry">
            <Array as="points">
              <mxPoint x="320" y="80" />
            </Array>
            <mxPoint as="offset" />
          </mxGeometry>
        </mxCell>
        <mxCell id="W9jZJQIDUN-E1ysLY_Tf-279" style="edgeStyle=orthogonalEdgeStyle;rounded=0;orthogonalLoop=1;jettySize=auto;html=1;exitX=0.75;exitY=0;exitDx=0;exitDy=0;endArrow=none;endFill=0;" parent="1" source="EP_qLhoWPCY1FDuJNaD8-5" target="8cLc6BH1WFFABob_ZuYg-15" edge="1">
          <mxGeometry relative="1" as="geometry">
            <mxPoint x="419.8399999999999" y="189" as="targetPoint" />
            <Array as="points">
              <mxPoint x="345" y="170" />
            </Array>
          </mxGeometry>
        </mxCell>
        <mxCell id="EP_qLhoWPCY1FDuJNaD8-5" value="PC" style="swimlane;fontStyle=1;childLayout=stackLayout;horizontal=1;startSize=30;horizontalStack=0;resizeParent=1;resizeParentMax=0;resizeLast=0;collapsible=1;marginBottom=0;whiteSpace=wrap;html=1;rounded=0;shadow=0;glass=0;strokeColor=default;align=center;verticalAlign=middle;fontFamily=Helvetica;fontSize=13;fontColor=default;fillColor=#888daa;labelBackgroundColor=none;labelBorderColor=none;swimlaneFillColor=none;fillStyle=auto;" parent="1" vertex="1">
          <mxGeometry x="270" y="244" width="100" height="90" as="geometry">
            <mxRectangle x="10" y="120" width="80" height="30" as="alternateBounds" />
          </mxGeometry>
        </mxCell>
        <mxCell id="W9jZJQIDUN-E1ysLY_Tf-293" value="Objetivo" style="text;strokeColor=none;fillColor=none;align=left;verticalAlign=middle;spacingLeft=4;spacingRight=4;overflow=hidden;points=[[0,0.5],[1,0.5]];portConstraint=eastwest;rotatable=0;whiteSpace=wrap;html=1;fontSize=12;fontFamily=Helvetica;fontColor=default;labelBackgroundColor=none;labelBorderColor=none;swimlaneFillColor=none;" parent="EP_qLhoWPCY1FDuJNaD8-5" vertex="1">
          <mxGeometry y="30" width="100" height="30" as="geometry" />
        </mxCell>
        <mxCell id="W9jZJQIDUN-E1ysLY_Tf-291" value="ConheceDeus" style="text;strokeColor=none;fillColor=none;align=left;verticalAlign=middle;spacingLeft=4;spacingRight=4;overflow=hidden;points=[[0,0.5],[1,0.5]];portConstraint=eastwest;rotatable=0;whiteSpace=wrap;html=1;fontSize=12;fontFamily=Helvetica;fontColor=default;labelBackgroundColor=none;labelBorderColor=none;swimlaneFillColor=none;" parent="EP_qLhoWPCY1FDuJNaD8-5" vertex="1">
          <mxGeometry y="60" width="100" height="30" as="geometry" />
        </mxCell>
        <mxCell id="W9jZJQIDUN-E1ysLY_Tf-15" value="1" style="edgeStyle=orthogonalEdgeStyle;rounded=0;orthogonalLoop=1;jettySize=auto;html=1;entryX=0;entryY=0;entryDx=0;entryDy=0;endArrow=none;endFill=0;" parent="1" source="EP_qLhoWPCY1FDuJNaD8-25" target="EP_qLhoWPCY1FDuJNaD8-27" edge="1">
          <mxGeometry x="0.9728" y="10" relative="1" as="geometry">
            <Array as="points">
              <mxPoint x="1110" y="36" />
              <mxPoint x="1110" y="20" />
            </Array>
            <mxPoint as="offset" />
          </mxGeometry>
        </mxCell>
        <mxCell id="EP_qLhoWPCY1FDuJNaD8-25" value="Está" style="html=1;whiteSpace=wrap;aspect=fixed;shape=isoRectangle;rounded=0;shadow=0;glass=0;strokeColor=default;align=center;verticalAlign=middle;fontFamily=Helvetica;fontSize=12;fontColor=default;startSize=30;fillColor=default;" parent="1" vertex="1">
          <mxGeometry x="1000" width="100" height="72" as="geometry" />
        </mxCell>
        <mxCell id="EP_qLhoWPCY1FDuJNaD8-27" value="Localização" style="swimlane;fontStyle=1;childLayout=stackLayout;horizontal=1;startSize=30;horizontalStack=0;resizeParent=1;resizeParentMax=0;resizeLast=0;collapsible=1;marginBottom=0;whiteSpace=wrap;html=1;rounded=0;shadow=0;glass=0;strokeColor=default;align=center;verticalAlign=middle;fontFamily=Helvetica;fontSize=13;fontColor=default;fillColor=#888daa;labelBackgroundColor=none;labelBorderColor=none;swimlaneFillColor=none;fillStyle=auto;" parent="1" vertex="1">
          <mxGeometry x="1820" y="5" width="100" height="60" as="geometry">
            <mxRectangle x="10" y="120" width="80" height="30" as="alternateBounds" />
          </mxGeometry>
        </mxCell>
        <mxCell id="W9jZJQIDUN-E1ysLY_Tf-287" value="&lt;u&gt;id localização&lt;/u&gt;" style="text;strokeColor=none;fillColor=none;align=left;verticalAlign=middle;spacingLeft=4;spacingRight=4;overflow=hidden;points=[[0,0.5],[1,0.5]];portConstraint=eastwest;rotatable=0;whiteSpace=wrap;html=1;fontSize=12;fontFamily=Helvetica;fontColor=default;labelBackgroundColor=none;labelBorderColor=none;swimlaneFillColor=none;" parent="EP_qLhoWPCY1FDuJNaD8-27" vertex="1">
          <mxGeometry y="30" width="100" height="30" as="geometry" />
        </mxCell>
        <mxCell id="EP_qLhoWPCY1FDuJNaD8-41" value="Fase" style="swimlane;fontStyle=1;childLayout=stackLayout;horizontal=1;startSize=30;horizontalStack=0;resizeParent=1;resizeParentMax=0;resizeLast=0;collapsible=1;marginBottom=0;whiteSpace=wrap;html=1;rounded=0;shadow=0;glass=0;strokeColor=default;align=center;verticalAlign=middle;fontFamily=Helvetica;fontSize=13;fontColor=default;fillColor=#888daa;labelBackgroundColor=none;labelBorderColor=none;swimlaneFillColor=none;fillStyle=auto;" parent="1" vertex="1">
          <mxGeometry x="2210" y="20" width="100" height="90" as="geometry">
            <mxRectangle x="10" y="120" width="80" height="30" as="alternateBounds" />
          </mxGeometry>
        </mxCell>
        <mxCell id="W9jZJQIDUN-E1ysLY_Tf-166" value="&lt;u&gt;ID Fase&lt;/u&gt;" style="text;strokeColor=none;fillColor=none;align=left;verticalAlign=middle;spacingLeft=4;spacingRight=4;overflow=hidden;points=[[0,0.5],[1,0.5]];portConstraint=eastwest;rotatable=0;whiteSpace=wrap;html=1;fontSize=12;fontFamily=Helvetica;fontColor=default;labelBackgroundColor=none;labelBorderColor=none;swimlaneFillColor=none;" parent="EP_qLhoWPCY1FDuJNaD8-41" vertex="1">
          <mxGeometry y="30" width="100" height="30" as="geometry" />
        </mxCell>
        <mxCell id="8cLc6BH1WFFABob_ZuYg-1" value="Descrição" style="text;strokeColor=none;fillColor=none;align=left;verticalAlign=middle;spacingLeft=4;spacingRight=4;overflow=hidden;points=[[0,0.5],[1,0.5]];portConstraint=eastwest;rotatable=0;whiteSpace=wrap;html=1;fontSize=12;fontFamily=Helvetica;fontColor=default;labelBackgroundColor=none;labelBorderColor=none;swimlaneFillColor=none;" parent="EP_qLhoWPCY1FDuJNaD8-41" vertex="1">
          <mxGeometry y="60" width="100" height="30" as="geometry" />
        </mxCell>
        <mxCell id="EP_qLhoWPCY1FDuJNaD8-43" value="Região" style="swimlane;fontStyle=1;childLayout=stackLayout;horizontal=1;startSize=30;horizontalStack=0;resizeParent=1;resizeParentMax=0;resizeLast=0;collapsible=1;marginBottom=0;whiteSpace=wrap;html=1;rounded=0;shadow=0;glass=0;strokeColor=default;align=center;verticalAlign=middle;fontFamily=Helvetica;fontSize=13;fontColor=default;fillColor=#888daa;labelBackgroundColor=none;labelBorderColor=none;swimlaneFillColor=none;fillStyle=auto;" parent="1" vertex="1">
          <mxGeometry x="2050" y="180" width="100" height="120" as="geometry">
            <mxRectangle x="1290" y="220" width="80" height="30" as="alternateBounds" />
          </mxGeometry>
        </mxCell>
        <mxCell id="EP_qLhoWPCY1FDuJNaD8-44" value="&lt;u&gt;Id região&lt;/u&gt;" style="text;strokeColor=none;fillColor=none;align=left;verticalAlign=middle;spacingLeft=4;spacingRight=4;overflow=hidden;points=[[0,0.5],[1,0.5]];portConstraint=eastwest;rotatable=0;whiteSpace=wrap;html=1;fontSize=12;fontFamily=Helvetica;fontColor=default;labelBackgroundColor=none;labelBorderColor=none;swimlaneFillColor=none;" parent="EP_qLhoWPCY1FDuJNaD8-43" vertex="1">
          <mxGeometry y="30" width="100" height="30" as="geometry" />
        </mxCell>
        <mxCell id="W9jZJQIDUN-E1ysLY_Tf-282" value="Descrição" style="text;strokeColor=none;fillColor=none;align=left;verticalAlign=middle;spacingLeft=4;spacingRight=4;overflow=hidden;points=[[0,0.5],[1,0.5]];portConstraint=eastwest;rotatable=0;whiteSpace=wrap;html=1;fontSize=12;fontFamily=Helvetica;fontColor=default;labelBackgroundColor=none;labelBorderColor=none;swimlaneFillColor=none;" parent="EP_qLhoWPCY1FDuJNaD8-43" vertex="1">
          <mxGeometry y="60" width="100" height="30" as="geometry" />
        </mxCell>
        <mxCell id="W9jZJQIDUN-E1ysLY_Tf-248" value="Nome" style="text;strokeColor=none;fillColor=none;align=left;verticalAlign=middle;spacingLeft=4;spacingRight=4;overflow=hidden;points=[[0,0.5],[1,0.5]];portConstraint=eastwest;rotatable=0;whiteSpace=wrap;html=1;fontSize=12;fontFamily=Helvetica;fontColor=default;labelBackgroundColor=none;labelBorderColor=none;swimlaneFillColor=none;" parent="EP_qLhoWPCY1FDuJNaD8-43" vertex="1">
          <mxGeometry y="90" width="100" height="30" as="geometry" />
        </mxCell>
        <mxCell id="EP_qLhoWPCY1FDuJNaD8-45" value="Estrutura" style="swimlane;fontStyle=1;childLayout=stackLayout;horizontal=1;startSize=30;horizontalStack=0;resizeParent=1;resizeParentMax=0;resizeLast=0;collapsible=1;marginBottom=0;whiteSpace=wrap;html=1;rounded=0;shadow=0;glass=0;strokeColor=default;align=center;verticalAlign=middle;fontFamily=Helvetica;fontSize=13;fontColor=default;fillColor=#888daa;labelBackgroundColor=none;labelBorderColor=none;swimlaneFillColor=none;fillStyle=auto;" parent="1" vertex="1">
          <mxGeometry x="2210" y="410" width="100" height="120" as="geometry">
            <mxRectangle x="10" y="120" width="80" height="30" as="alternateBounds" />
          </mxGeometry>
        </mxCell>
        <mxCell id="EP_qLhoWPCY1FDuJNaD8-46" value="&lt;u&gt;id estrutura&lt;/u&gt;" style="text;strokeColor=none;fillColor=none;align=left;verticalAlign=middle;spacingLeft=4;spacingRight=4;overflow=hidden;points=[[0,0.5],[1,0.5]];portConstraint=eastwest;rotatable=0;whiteSpace=wrap;html=1;fontSize=12;fontFamily=Helvetica;fontColor=default;labelBackgroundColor=none;labelBorderColor=none;swimlaneFillColor=none;" parent="EP_qLhoWPCY1FDuJNaD8-45" vertex="1">
          <mxGeometry y="30" width="100" height="30" as="geometry" />
        </mxCell>
        <mxCell id="W9jZJQIDUN-E1ysLY_Tf-245" value="Nome" style="text;strokeColor=none;fillColor=none;align=left;verticalAlign=middle;spacingLeft=4;spacingRight=4;overflow=hidden;points=[[0,0.5],[1,0.5]];portConstraint=eastwest;rotatable=0;whiteSpace=wrap;html=1;fontSize=12;fontFamily=Helvetica;fontColor=default;labelBackgroundColor=none;labelBorderColor=none;swimlaneFillColor=none;" parent="EP_qLhoWPCY1FDuJNaD8-45" vertex="1">
          <mxGeometry y="60" width="100" height="30" as="geometry" />
        </mxCell>
        <mxCell id="W9jZJQIDUN-E1ysLY_Tf-244" value="Sala inicial" style="text;strokeColor=none;fillColor=none;align=left;verticalAlign=middle;spacingLeft=4;spacingRight=4;overflow=hidden;points=[[0,0.5],[1,0.5]];portConstraint=eastwest;rotatable=0;whiteSpace=wrap;html=1;fontSize=12;fontFamily=Helvetica;fontColor=default;labelBackgroundColor=none;labelBorderColor=none;swimlaneFillColor=none;" parent="EP_qLhoWPCY1FDuJNaD8-45" vertex="1">
          <mxGeometry y="90" width="100" height="30" as="geometry" />
        </mxCell>
        <mxCell id="EP_qLhoWPCY1FDuJNaD8-47" value="Sala" style="swimlane;fontStyle=1;childLayout=stackLayout;horizontal=1;startSize=30;horizontalStack=0;resizeParent=1;resizeParentMax=0;resizeLast=0;collapsible=1;marginBottom=0;whiteSpace=wrap;html=1;rounded=0;shadow=0;glass=0;strokeColor=default;align=center;verticalAlign=middle;fontFamily=Helvetica;fontSize=13;fontColor=default;fillColor=#888daa;labelBackgroundColor=none;labelBorderColor=none;swimlaneFillColor=none;fillStyle=auto;" parent="1" vertex="1">
          <mxGeometry x="2050.05" y="524" width="100" height="120" as="geometry">
            <mxRectangle x="10" y="120" width="80" height="30" as="alternateBounds" />
          </mxGeometry>
        </mxCell>
        <mxCell id="EP_qLhoWPCY1FDuJNaD8-48" value="&lt;u&gt;id sala&lt;/u&gt;" style="text;strokeColor=none;fillColor=none;align=left;verticalAlign=middle;spacingLeft=4;spacingRight=4;overflow=hidden;points=[[0,0.5],[1,0.5]];portConstraint=eastwest;rotatable=0;whiteSpace=wrap;html=1;fontSize=12;fontFamily=Helvetica;fontColor=default;labelBackgroundColor=none;labelBorderColor=none;swimlaneFillColor=none;" parent="EP_qLhoWPCY1FDuJNaD8-47" vertex="1">
          <mxGeometry y="30" width="100" height="30" as="geometry" />
        </mxCell>
        <mxCell id="W9jZJQIDUN-E1ysLY_Tf-314" value="Descrição" style="text;strokeColor=none;fillColor=none;align=left;verticalAlign=middle;spacingLeft=4;spacingRight=4;overflow=hidden;points=[[0,0.5],[1,0.5]];portConstraint=eastwest;rotatable=0;whiteSpace=wrap;html=1;fontSize=12;fontFamily=Helvetica;fontColor=default;labelBackgroundColor=none;labelBorderColor=none;swimlaneFillColor=none;" parent="EP_qLhoWPCY1FDuJNaD8-47" vertex="1">
          <mxGeometry y="60" width="100" height="30" as="geometry" />
        </mxCell>
        <mxCell id="W9jZJQIDUN-E1ysLY_Tf-283" value="isvisited" style="text;strokeColor=none;fillColor=none;align=left;verticalAlign=middle;spacingLeft=4;spacingRight=4;overflow=hidden;points=[[0,0.5],[1,0.5]];portConstraint=eastwest;rotatable=0;whiteSpace=wrap;html=1;fontSize=12;fontFamily=Helvetica;fontColor=default;labelBackgroundColor=none;labelBorderColor=none;swimlaneFillColor=none;" parent="EP_qLhoWPCY1FDuJNaD8-47" vertex="1">
          <mxGeometry y="90" width="100" height="30" as="geometry" />
        </mxCell>
        <mxCell id="EP_qLhoWPCY1FDuJNaD8-62" value="1" style="edgeStyle=orthogonalEdgeStyle;rounded=0;orthogonalLoop=1;jettySize=auto;html=1;endArrow=none;endFill=0;" parent="1" source="EP_qLhoWPCY1FDuJNaD8-60" target="EP_qLhoWPCY1FDuJNaD8-41" edge="1">
          <mxGeometry x="0.6667" y="-10" relative="1" as="geometry">
            <mxPoint as="offset" />
          </mxGeometry>
        </mxCell>
        <mxCell id="W9jZJQIDUN-E1ysLY_Tf-45" value="1..N" style="edgeStyle=orthogonalEdgeStyle;rounded=0;orthogonalLoop=1;jettySize=auto;html=1;endArrow=none;endFill=0;shape=link;exitX=0.502;exitY=0.899;exitDx=0;exitDy=0;exitPerimeter=0;" parent="1" source="EP_qLhoWPCY1FDuJNaD8-60" target="EP_qLhoWPCY1FDuJNaD8-43" edge="1">
          <mxGeometry x="0.4595" y="-10" relative="1" as="geometry">
            <Array as="points">
              <mxPoint x="2170" y="210" />
              <mxPoint x="2170" y="210" />
            </Array>
            <mxPoint as="offset" />
          </mxGeometry>
        </mxCell>
        <mxCell id="EP_qLhoWPCY1FDuJNaD8-60" value="Possui" style="html=1;whiteSpace=wrap;aspect=fixed;shape=isoRectangle;rounded=0;shadow=0;glass=0;strokeColor=default;align=center;verticalAlign=middle;fontFamily=Helvetica;fontSize=12;fontColor=default;startSize=30;fillColor=default;direction=south;" parent="1" vertex="1">
          <mxGeometry x="2224" y="160" width="72" height="100" as="geometry" />
        </mxCell>
        <mxCell id="EP_qLhoWPCY1FDuJNaD8-64" value="0..N" style="edgeStyle=orthogonalEdgeStyle;rounded=0;orthogonalLoop=1;jettySize=auto;html=1;endArrow=none;endFill=0;shape=link;" parent="1" source="EP_qLhoWPCY1FDuJNaD8-63" target="EP_qLhoWPCY1FDuJNaD8-45" edge="1">
          <mxGeometry x="0.6667" y="20" relative="1" as="geometry">
            <mxPoint as="offset" />
          </mxGeometry>
        </mxCell>
        <mxCell id="W9jZJQIDUN-E1ysLY_Tf-52" value="1" style="edgeStyle=orthogonalEdgeStyle;rounded=0;orthogonalLoop=1;jettySize=auto;html=1;endArrow=none;endFill=0;" parent="1" source="EP_qLhoWPCY1FDuJNaD8-63" target="EP_qLhoWPCY1FDuJNaD8-43" edge="1">
          <mxGeometry x="0.8824" y="-10" relative="1" as="geometry">
            <Array as="points">
              <mxPoint x="2260" y="280" />
              <mxPoint x="2200" y="280" />
              <mxPoint x="2200" y="260" />
            </Array>
            <mxPoint as="offset" />
          </mxGeometry>
        </mxCell>
        <mxCell id="EP_qLhoWPCY1FDuJNaD8-63" value="Possui" style="html=1;whiteSpace=wrap;aspect=fixed;shape=isoRectangle;rounded=0;shadow=0;glass=0;strokeColor=default;align=center;verticalAlign=middle;fontFamily=Helvetica;fontSize=12;fontColor=default;startSize=30;fillColor=default;direction=south;" parent="1" vertex="1">
          <mxGeometry x="2224" y="290" width="72" height="100" as="geometry" />
        </mxCell>
        <mxCell id="EP_qLhoWPCY1FDuJNaD8-67" value="1" style="edgeStyle=orthogonalEdgeStyle;rounded=0;orthogonalLoop=1;jettySize=auto;html=1;endArrow=none;endFill=0;shape=link;" parent="1" source="EP_qLhoWPCY1FDuJNaD8-66" target="EP_qLhoWPCY1FDuJNaD8-45" edge="1">
          <mxGeometry x="0.6667" y="-10" relative="1" as="geometry">
            <mxPoint as="offset" />
          </mxGeometry>
        </mxCell>
        <mxCell id="EP_qLhoWPCY1FDuJNaD8-68" value="1..N" style="edgeStyle=orthogonalEdgeStyle;rounded=0;orthogonalLoop=1;jettySize=auto;html=1;endArrow=none;endFill=0;shape=link;exitX=0.501;exitY=0.906;exitDx=0;exitDy=0;exitPerimeter=0;" parent="1" source="EP_qLhoWPCY1FDuJNaD8-66" target="EP_qLhoWPCY1FDuJNaD8-47" edge="1">
          <mxGeometry x="0.5057" y="-16" relative="1" as="geometry">
            <mxPoint as="offset" />
            <Array as="points">
              <mxPoint x="2200" y="606" />
              <mxPoint x="2200" y="606" />
            </Array>
          </mxGeometry>
        </mxCell>
        <mxCell id="EP_qLhoWPCY1FDuJNaD8-66" value="Possui" style="html=1;whiteSpace=wrap;aspect=fixed;shape=isoRectangle;rounded=0;shadow=0;glass=0;strokeColor=default;align=center;verticalAlign=middle;fontFamily=Helvetica;fontSize=12;fontColor=default;startSize=30;fillColor=default;direction=south;" parent="1" vertex="1">
          <mxGeometry x="2224" y="556" width="72" height="100" as="geometry" />
        </mxCell>
        <mxCell id="W9jZJQIDUN-E1ysLY_Tf-195" style="edgeStyle=orthogonalEdgeStyle;rounded=0;orthogonalLoop=1;jettySize=auto;html=1;jumpStyle=sharp;endArrow=none;endFill=0;" parent="1" source="EP_qLhoWPCY1FDuJNaD8-86" target="W9jZJQIDUN-E1ysLY_Tf-194" edge="1">
          <mxGeometry relative="1" as="geometry">
            <Array as="points">
              <mxPoint x="795" y="150" />
              <mxPoint x="1180" y="150" />
              <mxPoint x="1180" y="74" />
            </Array>
          </mxGeometry>
        </mxCell>
        <mxCell id="W9jZJQIDUN-E1ysLY_Tf-197" value="0..N" style="edgeLabel;html=1;align=center;verticalAlign=middle;resizable=0;points=[];" parent="W9jZJQIDUN-E1ysLY_Tf-195" vertex="1" connectable="0">
          <mxGeometry x="-0.9324" y="1" relative="1" as="geometry">
            <mxPoint x="16" y="12" as="offset" />
          </mxGeometry>
        </mxCell>
        <mxCell id="EP_qLhoWPCY1FDuJNaD8-86" value="Item" style="swimlane;fontStyle=1;childLayout=stackLayout;horizontal=1;startSize=30;horizontalStack=0;resizeParent=1;resizeParentMax=0;resizeLast=0;collapsible=1;marginBottom=0;whiteSpace=wrap;html=1;rounded=0;shadow=0;glass=0;strokeColor=default;align=center;verticalAlign=middle;fontFamily=Helvetica;fontSize=13;fontColor=default;fillColor=#888daa;labelBackgroundColor=none;labelBorderColor=none;swimlaneFillColor=none;fillStyle=auto;" parent="1" vertex="1">
          <mxGeometry x="745" y="262" width="100" height="150" as="geometry">
            <mxRectangle x="10" y="120" width="80" height="30" as="alternateBounds" />
          </mxGeometry>
        </mxCell>
        <mxCell id="W9jZJQIDUN-E1ysLY_Tf-161" value="&lt;u&gt;iditem&lt;/u&gt;" style="text;strokeColor=none;fillColor=none;align=left;verticalAlign=middle;spacingLeft=4;spacingRight=4;overflow=hidden;points=[[0,0.5],[1,0.5]];portConstraint=eastwest;rotatable=0;whiteSpace=wrap;html=1;fontSize=12;fontFamily=Helvetica;fontColor=default;labelBackgroundColor=none;labelBorderColor=none;swimlaneFillColor=none;" parent="EP_qLhoWPCY1FDuJNaD8-86" vertex="1">
          <mxGeometry y="30" width="100" height="30" as="geometry" />
        </mxCell>
        <mxCell id="svqt2gbtiOX3JFMTlLOE-4" value="Nome" style="text;strokeColor=none;fillColor=none;align=left;verticalAlign=middle;spacingLeft=4;spacingRight=4;overflow=hidden;points=[[0,0.5],[1,0.5]];portConstraint=eastwest;rotatable=0;whiteSpace=wrap;html=1;fontSize=12;fontFamily=Helvetica;fontColor=default;labelBackgroundColor=none;labelBorderColor=none;swimlaneFillColor=none;" parent="EP_qLhoWPCY1FDuJNaD8-86" vertex="1">
          <mxGeometry y="60" width="100" height="30" as="geometry" />
        </mxCell>
        <mxCell id="W9jZJQIDUN-E1ysLY_Tf-295" value="Descrição" style="text;strokeColor=none;fillColor=none;align=left;verticalAlign=middle;spacingLeft=4;spacingRight=4;overflow=hidden;points=[[0,0.5],[1,0.5]];portConstraint=eastwest;rotatable=0;whiteSpace=wrap;html=1;fontSize=12;fontFamily=Helvetica;fontColor=default;labelBackgroundColor=none;labelBorderColor=none;swimlaneFillColor=none;" parent="EP_qLhoWPCY1FDuJNaD8-86" vertex="1">
          <mxGeometry y="90" width="100" height="30" as="geometry" />
        </mxCell>
        <mxCell id="EP_qLhoWPCY1FDuJNaD8-87" value="&lt;b&gt;Tipo&lt;/b&gt;" style="text;strokeColor=none;fillColor=none;align=left;verticalAlign=middle;spacingLeft=4;spacingRight=4;overflow=hidden;points=[[0,0.5],[1,0.5]];portConstraint=eastwest;rotatable=0;whiteSpace=wrap;html=1;fontSize=12;fontFamily=Helvetica;fontColor=default;labelBackgroundColor=none;labelBorderColor=none;swimlaneFillColor=none;" parent="EP_qLhoWPCY1FDuJNaD8-86" vertex="1">
          <mxGeometry y="120" width="100" height="30" as="geometry" />
        </mxCell>
        <mxCell id="W9jZJQIDUN-E1ysLY_Tf-180" value="0..N" style="edgeStyle=orthogonalEdgeStyle;rounded=0;orthogonalLoop=1;jettySize=auto;html=1;endArrow=none;endFill=0;shape=link;" parent="1" source="EP_qLhoWPCY1FDuJNaD8-88" target="W9jZJQIDUN-E1ysLY_Tf-179" edge="1">
          <mxGeometry x="-0.8148" y="-20" relative="1" as="geometry">
            <mxPoint as="offset" />
          </mxGeometry>
        </mxCell>
        <mxCell id="EP_qLhoWPCY1FDuJNaD8-88" value="Objeto" style="swimlane;fontStyle=1;childLayout=stackLayout;horizontal=1;startSize=30;horizontalStack=0;resizeParent=1;resizeParentMax=0;resizeLast=0;collapsible=1;marginBottom=0;whiteSpace=wrap;html=1;rounded=0;shadow=0;glass=0;strokeColor=default;align=center;verticalAlign=middle;fontFamily=Helvetica;fontSize=13;fontColor=default;fillColor=#888daa;labelBackgroundColor=none;labelBorderColor=none;swimlaneFillColor=none;fillStyle=auto;" parent="1" vertex="1">
          <mxGeometry x="1620" y="338" width="100" height="150" as="geometry">
            <mxRectangle x="10" y="120" width="80" height="30" as="alternateBounds" />
          </mxGeometry>
        </mxCell>
        <mxCell id="8cLc6BH1WFFABob_ZuYg-25" value="&lt;u&gt;id objeto&lt;/u&gt;" style="text;strokeColor=none;fillColor=none;align=left;verticalAlign=middle;spacingLeft=4;spacingRight=4;overflow=hidden;points=[[0,0.5],[1,0.5]];portConstraint=eastwest;rotatable=0;whiteSpace=wrap;html=1;fontSize=12;fontFamily=Helvetica;fontColor=default;labelBackgroundColor=none;labelBorderColor=none;swimlaneFillColor=none;" parent="EP_qLhoWPCY1FDuJNaD8-88" vertex="1">
          <mxGeometry y="30" width="100" height="30" as="geometry" />
        </mxCell>
        <mxCell id="svqt2gbtiOX3JFMTlLOE-7" value="Nome" style="text;strokeColor=none;fillColor=none;align=left;verticalAlign=middle;spacingLeft=4;spacingRight=4;overflow=hidden;points=[[0,0.5],[1,0.5]];portConstraint=eastwest;rotatable=0;whiteSpace=wrap;html=1;fontSize=12;fontFamily=Helvetica;fontColor=default;labelBackgroundColor=none;labelBorderColor=none;swimlaneFillColor=none;" parent="EP_qLhoWPCY1FDuJNaD8-88" vertex="1">
          <mxGeometry y="60" width="100" height="30" as="geometry" />
        </mxCell>
        <mxCell id="8cLc6BH1WFFABob_ZuYg-26" value="Descrição" style="text;strokeColor=none;fillColor=none;align=left;verticalAlign=middle;spacingLeft=4;spacingRight=4;overflow=hidden;points=[[0,0.5],[1,0.5]];portConstraint=eastwest;rotatable=0;whiteSpace=wrap;html=1;fontSize=12;fontFamily=Helvetica;fontColor=default;labelBackgroundColor=none;labelBorderColor=none;swimlaneFillColor=none;" parent="EP_qLhoWPCY1FDuJNaD8-88" vertex="1">
          <mxGeometry y="90" width="100" height="30" as="geometry" />
        </mxCell>
        <mxCell id="EP_qLhoWPCY1FDuJNaD8-89" value="Tipo" style="text;strokeColor=none;fillColor=none;align=left;verticalAlign=middle;spacingLeft=4;spacingRight=4;overflow=hidden;points=[[0,0.5],[1,0.5]];portConstraint=eastwest;rotatable=0;whiteSpace=wrap;html=1;fontSize=12;fontFamily=Helvetica;fontColor=default;labelBackgroundColor=none;labelBorderColor=none;swimlaneFillColor=none;" parent="EP_qLhoWPCY1FDuJNaD8-88" vertex="1">
          <mxGeometry y="120" width="100" height="30" as="geometry" />
        </mxCell>
        <mxCell id="EP_qLhoWPCY1FDuJNaD8-90" value="Equipamento" style="swimlane;fontStyle=1;childLayout=stackLayout;horizontal=1;startSize=30;horizontalStack=0;resizeParent=1;resizeParentMax=0;resizeLast=0;collapsible=1;marginBottom=0;whiteSpace=wrap;html=1;rounded=0;shadow=0;glass=0;strokeColor=default;align=center;verticalAlign=middle;fontFamily=Helvetica;fontSize=13;fontColor=default;fillColor=#888daa;labelBackgroundColor=none;labelBorderColor=none;swimlaneFillColor=none;fillStyle=auto;" parent="1" vertex="1">
          <mxGeometry x="645" y="535" width="100" height="90" as="geometry">
            <mxRectangle x="10" y="120" width="80" height="30" as="alternateBounds" />
          </mxGeometry>
        </mxCell>
        <mxCell id="W9jZJQIDUN-E1ysLY_Tf-297" value="Função" style="text;strokeColor=none;fillColor=none;align=left;verticalAlign=middle;spacingLeft=4;spacingRight=4;overflow=hidden;points=[[0,0.5],[1,0.5]];portConstraint=eastwest;rotatable=0;whiteSpace=wrap;html=1;fontSize=12;fontFamily=Helvetica;fontColor=default;labelBackgroundColor=none;labelBorderColor=none;swimlaneFillColor=none;" parent="EP_qLhoWPCY1FDuJNaD8-90" vertex="1">
          <mxGeometry y="30" width="100" height="30" as="geometry" />
        </mxCell>
        <mxCell id="8cLc6BH1WFFABob_ZuYg-105" value="usado em craft" style="text;strokeColor=none;fillColor=none;align=left;verticalAlign=middle;spacingLeft=4;spacingRight=4;overflow=hidden;points=[[0,0.5],[1,0.5]];portConstraint=eastwest;rotatable=0;whiteSpace=wrap;html=1;fontSize=12;fontFamily=Helvetica;fontColor=default;labelBackgroundColor=none;labelBorderColor=none;swimlaneFillColor=none;" parent="EP_qLhoWPCY1FDuJNaD8-90" vertex="1">
          <mxGeometry y="60" width="100" height="30" as="geometry" />
        </mxCell>
        <mxCell id="W9jZJQIDUN-E1ysLY_Tf-17" value="Material" style="swimlane;fontStyle=1;childLayout=stackLayout;horizontal=1;startSize=30;horizontalStack=0;resizeParent=1;resizeParentMax=0;resizeLast=0;collapsible=1;marginBottom=0;whiteSpace=wrap;html=1;rounded=0;shadow=0;glass=0;strokeColor=default;align=center;verticalAlign=middle;fontFamily=Helvetica;fontSize=13;fontColor=default;fillColor=#888daa;labelBackgroundColor=none;labelBorderColor=none;swimlaneFillColor=none;fillStyle=auto;" parent="1" vertex="1">
          <mxGeometry x="850" y="535" width="100" height="90" as="geometry">
            <mxRectangle x="10" y="120" width="80" height="30" as="alternateBounds" />
          </mxGeometry>
        </mxCell>
        <mxCell id="8cLc6BH1WFFABob_ZuYg-7" value="combina com" style="text;strokeColor=none;fillColor=none;align=left;verticalAlign=middle;spacingLeft=4;spacingRight=4;overflow=hidden;points=[[0,0.5],[1,0.5]];portConstraint=eastwest;rotatable=0;whiteSpace=wrap;html=1;fontSize=12;fontFamily=Helvetica;fontColor=default;labelBackgroundColor=none;labelBorderColor=none;swimlaneFillColor=none;" parent="W9jZJQIDUN-E1ysLY_Tf-17" vertex="1">
          <mxGeometry y="30" width="100" height="30" as="geometry" />
        </mxCell>
        <mxCell id="W9jZJQIDUN-E1ysLY_Tf-305" value="gera" style="text;strokeColor=none;fillColor=none;align=left;verticalAlign=middle;spacingLeft=4;spacingRight=4;overflow=hidden;points=[[0,0.5],[1,0.5]];portConstraint=eastwest;rotatable=0;whiteSpace=wrap;html=1;fontSize=12;fontFamily=Helvetica;fontColor=default;labelBackgroundColor=none;labelBorderColor=none;swimlaneFillColor=none;" parent="W9jZJQIDUN-E1ysLY_Tf-17" vertex="1">
          <mxGeometry y="60" width="100" height="30" as="geometry" />
        </mxCell>
        <mxCell id="W9jZJQIDUN-E1ysLY_Tf-21" value="0..1" style="edgeStyle=orthogonalEdgeStyle;rounded=0;orthogonalLoop=1;jettySize=auto;html=1;endArrow=none;endFill=0;exitX=0.497;exitY=0.094;exitDx=0;exitDy=0;exitPerimeter=0;" parent="1" source="W9jZJQIDUN-E1ysLY_Tf-19" target="EP_qLhoWPCY1FDuJNaD8-90" edge="1">
          <mxGeometry x="0.7402" y="-10" relative="1" as="geometry">
            <mxPoint as="offset" />
            <Array as="points">
              <mxPoint x="770" y="550" />
            </Array>
          </mxGeometry>
        </mxCell>
        <mxCell id="W9jZJQIDUN-E1ysLY_Tf-23" value="2" style="edgeStyle=orthogonalEdgeStyle;rounded=0;orthogonalLoop=1;jettySize=auto;html=1;endArrow=none;endFill=0;entryX=0.459;entryY=1.019;entryDx=0;entryDy=0;entryPerimeter=0;exitX=0.502;exitY=0.903;exitDx=0;exitDy=0;exitPerimeter=0;" parent="1" source="W9jZJQIDUN-E1ysLY_Tf-19" target="W9jZJQIDUN-E1ysLY_Tf-305" edge="1">
          <mxGeometry x="0.5476" y="10" relative="1" as="geometry">
            <mxPoint as="offset" />
            <Array as="points">
              <mxPoint x="770" y="710" />
              <mxPoint x="896" y="710" />
            </Array>
          </mxGeometry>
        </mxCell>
        <mxCell id="W9jZJQIDUN-E1ysLY_Tf-222" value="&lt;i&gt;combinados&lt;/i&gt;" style="edgeLabel;html=1;align=center;verticalAlign=middle;resizable=0;points=[];" parent="W9jZJQIDUN-E1ysLY_Tf-23" vertex="1" connectable="0">
          <mxGeometry x="0.3301" y="-2" relative="1" as="geometry">
            <mxPoint x="32" y="-55" as="offset" />
          </mxGeometry>
        </mxCell>
        <mxCell id="W9jZJQIDUN-E1ysLY_Tf-210" value="1..2" style="edgeStyle=orthogonalEdgeStyle;rounded=0;orthogonalLoop=1;jettySize=auto;html=1;endArrow=none;endFill=0;exitX=0.987;exitY=0.501;exitDx=0;exitDy=0;exitPerimeter=0;" parent="1" source="W9jZJQIDUN-E1ysLY_Tf-19" target="W9jZJQIDUN-E1ysLY_Tf-17" edge="1">
          <mxGeometry x="0.7278" y="14" relative="1" as="geometry">
            <Array as="points">
              <mxPoint x="830" y="670" />
              <mxPoint x="830" y="610" />
            </Array>
            <mxPoint as="offset" />
            <mxPoint x="800" y="670" as="sourcePoint" />
          </mxGeometry>
        </mxCell>
        <mxCell id="W9jZJQIDUN-E1ysLY_Tf-221" value="&lt;i&gt;gera&lt;/i&gt;" style="edgeLabel;html=1;align=center;verticalAlign=middle;resizable=0;points=[];" parent="W9jZJQIDUN-E1ysLY_Tf-210" vertex="1" connectable="0">
          <mxGeometry x="-0.5236" y="2" relative="1" as="geometry">
            <mxPoint x="-13" y="-43" as="offset" />
          </mxGeometry>
        </mxCell>
        <mxCell id="W9jZJQIDUN-E1ysLY_Tf-19" value="Combina" style="html=1;whiteSpace=wrap;aspect=fixed;shape=isoRectangle;rounded=0;shadow=0;glass=0;strokeColor=default;align=center;verticalAlign=middle;fontFamily=Helvetica;fontSize=12;fontColor=default;startSize=30;fillColor=default;" parent="1" vertex="1">
          <mxGeometry x="720" y="634" width="100" height="72" as="geometry" />
        </mxCell>
        <mxCell id="W9jZJQIDUN-E1ysLY_Tf-50" value="0..4" style="edgeStyle=orthogonalEdgeStyle;rounded=0;orthogonalLoop=1;jettySize=auto;html=1;endArrow=none;endFill=0;" parent="1" source="W9jZJQIDUN-E1ysLY_Tf-37" target="EP_qLhoWPCY1FDuJNaD8-43" edge="1">
          <mxGeometry x="0.6972" y="14" relative="1" as="geometry">
            <mxPoint x="2090" y="240" as="targetPoint" />
            <Array as="points">
              <mxPoint x="2040" y="336" />
              <mxPoint x="2040" y="290" />
            </Array>
            <mxPoint x="-10" y="4" as="offset" />
          </mxGeometry>
        </mxCell>
        <mxCell id="W9jZJQIDUN-E1ysLY_Tf-37" value="conecta" style="html=1;whiteSpace=wrap;aspect=fixed;shape=isoRectangle;rounded=0;shadow=0;glass=0;strokeColor=default;align=center;verticalAlign=middle;fontFamily=Helvetica;fontSize=12;fontColor=default;startSize=30;fillColor=default;direction=west;" parent="1" vertex="1">
          <mxGeometry x="2050.05" y="300" width="100" height="72" as="geometry" />
        </mxCell>
        <mxCell id="W9jZJQIDUN-E1ysLY_Tf-46" value="1" style="edgeStyle=orthogonalEdgeStyle;rounded=0;orthogonalLoop=1;jettySize=auto;html=1;endArrow=none;endFill=0;" parent="1" source="W9jZJQIDUN-E1ysLY_Tf-37" target="EP_qLhoWPCY1FDuJNaD8-43" edge="1">
          <mxGeometry x="0.6967" y="-14" relative="1" as="geometry">
            <mxPoint x="2110" y="240" as="targetPoint" />
            <Array as="points">
              <mxPoint x="2160" y="336" />
              <mxPoint x="2160" y="290" />
            </Array>
            <mxPoint x="10" y="4" as="offset" />
          </mxGeometry>
        </mxCell>
        <mxCell id="W9jZJQIDUN-E1ysLY_Tf-214" value="0..1" style="edgeStyle=orthogonalEdgeStyle;rounded=0;orthogonalLoop=1;jettySize=auto;html=1;endArrow=none;endFill=0;jumpStyle=sharp;" parent="1" source="W9jZJQIDUN-E1ysLY_Tf-61" edge="1">
          <mxGeometry x="-0.9404" y="-20" relative="1" as="geometry">
            <Array as="points">
              <mxPoint x="1680" y="720" />
              <mxPoint x="2100" y="720" />
              <mxPoint x="2100" y="706" />
            </Array>
            <mxPoint as="offset" />
            <mxPoint x="2101" y="706" as="targetPoint" />
          </mxGeometry>
        </mxCell>
        <mxCell id="svqt2gbtiOX3JFMTlLOE-25" value="Trava" style="edgeLabel;html=1;align=center;verticalAlign=middle;resizable=0;points=[];" parent="W9jZJQIDUN-E1ysLY_Tf-214" vertex="1" connectable="0">
          <mxGeometry x="-0.9442" y="-2" relative="1" as="geometry">
            <mxPoint x="22" y="1" as="offset" />
          </mxGeometry>
        </mxCell>
        <mxCell id="W9jZJQIDUN-E1ysLY_Tf-61" value="Interativo" style="swimlane;fontStyle=1;childLayout=stackLayout;horizontal=1;startSize=30;horizontalStack=0;resizeParent=1;resizeParentMax=0;resizeLast=0;collapsible=1;marginBottom=0;whiteSpace=wrap;html=1;rounded=0;shadow=0;glass=0;strokeColor=default;align=center;verticalAlign=middle;fontFamily=Helvetica;fontSize=13;fontColor=default;fillColor=#888daa;labelBackgroundColor=none;labelBorderColor=none;swimlaneFillColor=none;fillStyle=auto;" parent="1" vertex="1">
          <mxGeometry x="1620" y="600" width="100" height="90" as="geometry">
            <mxRectangle x="10" y="120" width="80" height="30" as="alternateBounds" />
          </mxGeometry>
        </mxCell>
        <mxCell id="8cLc6BH1WFFABob_ZuYg-30" value="Item requisito" style="text;strokeColor=none;fillColor=none;align=left;verticalAlign=middle;spacingLeft=4;spacingRight=4;overflow=hidden;points=[[0,0.5],[1,0.5]];portConstraint=eastwest;rotatable=0;whiteSpace=wrap;html=1;fontSize=12;fontFamily=Helvetica;fontColor=default;labelBackgroundColor=none;labelBorderColor=none;swimlaneFillColor=none;" parent="W9jZJQIDUN-E1ysLY_Tf-61" vertex="1">
          <mxGeometry y="30" width="100" height="30" as="geometry" />
        </mxCell>
        <mxCell id="W9jZJQIDUN-E1ysLY_Tf-201" value="Tranca" style="text;strokeColor=none;fillColor=none;align=left;verticalAlign=middle;spacingLeft=4;spacingRight=4;overflow=hidden;points=[[0,0.5],[1,0.5]];portConstraint=eastwest;rotatable=0;whiteSpace=wrap;html=1;fontSize=12;fontFamily=Helvetica;fontColor=default;labelBackgroundColor=none;labelBorderColor=none;swimlaneFillColor=none;" parent="W9jZJQIDUN-E1ysLY_Tf-61" vertex="1">
          <mxGeometry y="60" width="100" height="30" as="geometry" />
        </mxCell>
        <mxCell id="W9jZJQIDUN-E1ysLY_Tf-68" value="1" style="edgeStyle=orthogonalEdgeStyle;rounded=0;orthogonalLoop=1;jettySize=auto;html=1;endArrow=none;endFill=0;" parent="1" source="W9jZJQIDUN-E1ysLY_Tf-65" target="EP_qLhoWPCY1FDuJNaD8-43" edge="1">
          <mxGeometry x="0.8571" y="10" relative="1" as="geometry">
            <Array as="points">
              <mxPoint x="2100" y="140" />
            </Array>
            <mxPoint as="offset" />
          </mxGeometry>
        </mxCell>
        <mxCell id="W9jZJQIDUN-E1ysLY_Tf-69" value="0..1" style="edgeStyle=orthogonalEdgeStyle;rounded=0;orthogonalLoop=1;jettySize=auto;html=1;endArrow=none;endFill=0;jumpStyle=sharp;exitX=0.492;exitY=0.122;exitDx=0;exitDy=0;exitPerimeter=0;" parent="1" source="W9jZJQIDUN-E1ysLY_Tf-65" target="EP_qLhoWPCY1FDuJNaD8-47" edge="1">
          <mxGeometry x="0.9446" y="10" relative="1" as="geometry">
            <Array as="points">
              <mxPoint x="1871" y="480" />
              <mxPoint x="2060" y="480" />
            </Array>
            <mxPoint as="offset" />
          </mxGeometry>
        </mxCell>
        <mxCell id="W9jZJQIDUN-E1ysLY_Tf-153" value="1" style="edgeStyle=orthogonalEdgeStyle;rounded=0;orthogonalLoop=1;jettySize=auto;html=1;shape=link;" parent="1" source="W9jZJQIDUN-E1ysLY_Tf-65" target="EP_qLhoWPCY1FDuJNaD8-27" edge="1">
          <mxGeometry x="0.5778" y="-20" relative="1" as="geometry">
            <mxPoint as="offset" />
          </mxGeometry>
        </mxCell>
        <mxCell id="W9jZJQIDUN-E1ysLY_Tf-65" value="Aponta" style="html=1;whiteSpace=wrap;aspect=fixed;shape=isoRectangle;rounded=0;shadow=0;glass=0;strokeColor=default;align=center;verticalAlign=middle;fontFamily=Helvetica;fontSize=12;fontColor=default;startSize=30;fillColor=default;direction=west;" parent="1" vertex="1">
          <mxGeometry x="1820" y="104" width="100" height="72" as="geometry" />
        </mxCell>
        <mxCell id="W9jZJQIDUN-E1ysLY_Tf-81" value="" style="edgeStyle=orthogonalEdgeStyle;rounded=0;orthogonalLoop=1;jettySize=auto;html=1;endArrow=none;endFill=0;shape=link;" parent="1" source="W9jZJQIDUN-E1ysLY_Tf-76" target="W9jZJQIDUN-E1ysLY_Tf-78" edge="1">
          <mxGeometry relative="1" as="geometry" />
        </mxCell>
        <mxCell id="W9jZJQIDUN-E1ysLY_Tf-113" value="(T,E)" style="edgeLabel;html=1;align=center;verticalAlign=middle;resizable=0;points=[];" parent="W9jZJQIDUN-E1ysLY_Tf-81" vertex="1" connectable="0">
          <mxGeometry x="0.387" y="5" relative="1" as="geometry">
            <mxPoint x="25" y="21" as="offset" />
          </mxGeometry>
        </mxCell>
        <mxCell id="W9jZJQIDUN-E1ysLY_Tf-89" value="0..N" style="edgeStyle=orthogonalEdgeStyle;rounded=0;orthogonalLoop=1;jettySize=auto;html=1;endArrow=none;endFill=0;jumpStyle=sharp;shape=link;" parent="1" source="W9jZJQIDUN-E1ysLY_Tf-76" target="EP_qLhoWPCY1FDuJNaD8-25" edge="1">
          <mxGeometry x="-0.9178" y="-14" relative="1" as="geometry">
            <Array as="points">
              <mxPoint x="690" y="36" />
            </Array>
            <mxPoint as="offset" />
          </mxGeometry>
        </mxCell>
        <mxCell id="W9jZJQIDUN-E1ysLY_Tf-76" value="Personagem" style="swimlane;fontStyle=1;childLayout=stackLayout;horizontal=1;startSize=30;horizontalStack=0;resizeParent=1;resizeParentMax=0;resizeLast=0;collapsible=1;marginBottom=0;whiteSpace=wrap;html=1;rounded=0;shadow=0;glass=0;strokeColor=default;align=center;verticalAlign=middle;fontFamily=Helvetica;fontSize=13;fontColor=default;fillColor=#888daa;labelBackgroundColor=none;labelBorderColor=none;swimlaneFillColor=none;fillStyle=auto;" parent="1" vertex="1">
          <mxGeometry x="170" y="5" width="100" height="120" as="geometry">
            <mxRectangle x="10" y="120" width="80" height="30" as="alternateBounds" />
          </mxGeometry>
        </mxCell>
        <mxCell id="W9jZJQIDUN-E1ysLY_Tf-77" value="&lt;u&gt;id&lt;/u&gt;" style="text;strokeColor=none;fillColor=none;align=left;verticalAlign=middle;spacingLeft=4;spacingRight=4;overflow=hidden;points=[[0,0.5],[1,0.5]];portConstraint=eastwest;rotatable=0;whiteSpace=wrap;html=1;fontSize=12;fontFamily=Helvetica;fontColor=default;labelBackgroundColor=none;labelBorderColor=none;swimlaneFillColor=none;" parent="W9jZJQIDUN-E1ysLY_Tf-76" vertex="1">
          <mxGeometry y="30" width="100" height="30" as="geometry" />
        </mxCell>
        <mxCell id="EP_qLhoWPCY1FDuJNaD8-6" value="Nome" style="text;strokeColor=none;fillColor=none;align=left;verticalAlign=middle;spacingLeft=4;spacingRight=4;overflow=hidden;points=[[0,0.5],[1,0.5]];portConstraint=eastwest;rotatable=0;whiteSpace=wrap;html=1;fontSize=12;fontFamily=Helvetica;fontColor=default;labelBackgroundColor=none;labelBorderColor=none;swimlaneFillColor=none;" parent="W9jZJQIDUN-E1ysLY_Tf-76" vertex="1">
          <mxGeometry y="60" width="100" height="30" as="geometry" />
        </mxCell>
        <mxCell id="svqt2gbtiOX3JFMTlLOE-9" value="Tipo" style="text;strokeColor=none;fillColor=none;align=left;verticalAlign=middle;spacingLeft=4;spacingRight=4;overflow=hidden;points=[[0,0.5],[1,0.5]];portConstraint=eastwest;rotatable=0;whiteSpace=wrap;html=1;fontSize=12;fontFamily=Helvetica;fontColor=default;labelBackgroundColor=none;labelBorderColor=none;swimlaneFillColor=none;" parent="W9jZJQIDUN-E1ysLY_Tf-76" vertex="1">
          <mxGeometry y="90" width="100" height="30" as="geometry" />
        </mxCell>
        <mxCell id="W9jZJQIDUN-E1ysLY_Tf-103" style="rounded=0;orthogonalLoop=1;jettySize=auto;html=1;exitX=0;exitY=0.5;exitDx=0;exitDy=0;endArrow=none;endFill=0;edgeStyle=orthogonalEdgeStyle;" parent="1" source="W9jZJQIDUN-E1ysLY_Tf-78" target="EP_qLhoWPCY1FDuJNaD8-5" edge="1">
          <mxGeometry relative="1" as="geometry">
            <mxPoint x="375" y="378" as="targetPoint" />
            <Array as="points">
              <mxPoint x="220" y="220" />
              <mxPoint x="290" y="220" />
            </Array>
          </mxGeometry>
        </mxCell>
        <mxCell id="W9jZJQIDUN-E1ysLY_Tf-109" value="&#39;pc&#39;" style="edgeLabel;html=1;align=center;verticalAlign=middle;resizable=0;points=[];fontStyle=2" parent="W9jZJQIDUN-E1ysLY_Tf-103" vertex="1" connectable="0">
          <mxGeometry x="0.6616" y="-1" relative="1" as="geometry">
            <mxPoint x="-19" y="4" as="offset" />
          </mxGeometry>
        </mxCell>
        <mxCell id="W9jZJQIDUN-E1ysLY_Tf-104" style="rounded=0;orthogonalLoop=1;jettySize=auto;html=1;exitX=0;exitY=0.5;exitDx=0;exitDy=0;endArrow=none;endFill=0;edgeStyle=orthogonalEdgeStyle;" parent="1" source="W9jZJQIDUN-E1ysLY_Tf-78" target="W9jZJQIDUN-E1ysLY_Tf-101" edge="1">
          <mxGeometry relative="1" as="geometry">
            <Array as="points">
              <mxPoint x="220" y="220" />
              <mxPoint x="150" y="220" />
            </Array>
          </mxGeometry>
        </mxCell>
        <mxCell id="W9jZJQIDUN-E1ysLY_Tf-110" value="&#39;npc&#39;" style="edgeLabel;html=1;align=center;verticalAlign=middle;resizable=0;points=[];fontStyle=2" parent="W9jZJQIDUN-E1ysLY_Tf-104" vertex="1" connectable="0">
          <mxGeometry x="0.5943" y="2" relative="1" as="geometry">
            <mxPoint x="18" y="9" as="offset" />
          </mxGeometry>
        </mxCell>
        <mxCell id="W9jZJQIDUN-E1ysLY_Tf-78" value="" style="triangle;whiteSpace=wrap;html=1;direction=north;" parent="1" vertex="1">
          <mxGeometry x="180" y="150" width="80" height="60" as="geometry" />
        </mxCell>
        <mxCell id="W9jZJQIDUN-E1ysLY_Tf-101" value="NPC" style="swimlane;fontStyle=1;childLayout=stackLayout;horizontal=1;startSize=30;horizontalStack=0;resizeParent=1;resizeParentMax=0;resizeLast=0;collapsible=1;marginBottom=0;whiteSpace=wrap;html=1;rounded=0;shadow=0;glass=0;strokeColor=default;align=center;verticalAlign=middle;fontFamily=Helvetica;fontSize=13;fontColor=default;fillColor=#888daa;labelBackgroundColor=none;labelBorderColor=none;swimlaneFillColor=none;fillStyle=auto;" parent="1" vertex="1">
          <mxGeometry x="70" y="244" width="100" height="90" as="geometry">
            <mxRectangle x="10" y="120" width="80" height="30" as="alternateBounds" />
          </mxGeometry>
        </mxCell>
        <mxCell id="W9jZJQIDUN-E1ysLY_Tf-290" value="descrição" style="text;strokeColor=none;fillColor=none;align=left;verticalAlign=middle;spacingLeft=4;spacingRight=4;overflow=hidden;points=[[0,0.5],[1,0.5]];portConstraint=eastwest;rotatable=0;whiteSpace=wrap;html=1;fontSize=12;fontFamily=Helvetica;fontColor=default;labelBackgroundColor=none;labelBorderColor=none;swimlaneFillColor=none;" parent="W9jZJQIDUN-E1ysLY_Tf-101" vertex="1">
          <mxGeometry y="30" width="100" height="30" as="geometry" />
        </mxCell>
        <mxCell id="W9jZJQIDUN-E1ysLY_Tf-294" value="isWordMachine" style="text;strokeColor=none;fillColor=none;align=left;verticalAlign=middle;spacingLeft=4;spacingRight=4;overflow=hidden;points=[[0,0.5],[1,0.5]];portConstraint=eastwest;rotatable=0;whiteSpace=wrap;html=1;fontSize=12;fontFamily=Helvetica;fontColor=default;labelBackgroundColor=none;labelBorderColor=none;swimlaneFillColor=none;" parent="W9jZJQIDUN-E1ysLY_Tf-101" vertex="1">
          <mxGeometry y="60" width="100" height="30" as="geometry" />
        </mxCell>
        <mxCell id="W9jZJQIDUN-E1ysLY_Tf-123" value="1" style="edgeStyle=orthogonalEdgeStyle;rounded=0;orthogonalLoop=1;jettySize=auto;html=1;endArrow=none;endFill=0;exitX=0.502;exitY=0.886;exitDx=0;exitDy=0;exitPerimeter=0;" parent="1" source="W9jZJQIDUN-E1ysLY_Tf-120" target="EP_qLhoWPCY1FDuJNaD8-5" edge="1">
          <mxGeometry x="0.894" y="-10" relative="1" as="geometry">
            <Array as="points">
              <mxPoint x="70" y="360" />
              <mxPoint x="240" y="360" />
              <mxPoint x="240" y="289" />
            </Array>
            <mxPoint as="offset" />
          </mxGeometry>
        </mxCell>
        <mxCell id="W9jZJQIDUN-E1ysLY_Tf-120" value="Controla" style="html=1;whiteSpace=wrap;aspect=fixed;shape=isoRectangle;rounded=0;shadow=0;glass=0;strokeColor=default;align=center;verticalAlign=middle;fontFamily=Helvetica;fontSize=12;fontColor=default;startSize=30;fillColor=default;direction=west;" parent="1" vertex="1">
          <mxGeometry x="20" y="450" width="100" height="72" as="geometry" />
        </mxCell>
        <mxCell id="W9jZJQIDUN-E1ysLY_Tf-136" style="edgeStyle=orthogonalEdgeStyle;rounded=0;orthogonalLoop=1;jettySize=auto;html=1;endArrow=none;endFill=0;" parent="1" source="W9jZJQIDUN-E1ysLY_Tf-127" target="W9jZJQIDUN-E1ysLY_Tf-61" edge="1">
          <mxGeometry relative="1" as="geometry" />
        </mxCell>
        <mxCell id="W9jZJQIDUN-E1ysLY_Tf-138" value="&#39;interativo&#39;" style="edgeLabel;html=1;align=center;verticalAlign=middle;resizable=0;points=[];fontStyle=2" parent="W9jZJQIDUN-E1ysLY_Tf-136" vertex="1" connectable="0">
          <mxGeometry x="0.6698" y="-1" relative="1" as="geometry">
            <mxPoint x="31" y="-19" as="offset" />
          </mxGeometry>
        </mxCell>
        <mxCell id="W9jZJQIDUN-E1ysLY_Tf-149" value="(P,S)" style="edgeStyle=orthogonalEdgeStyle;rounded=0;orthogonalLoop=1;jettySize=auto;html=1;shape=link;" parent="1" source="W9jZJQIDUN-E1ysLY_Tf-127" target="EP_qLhoWPCY1FDuJNaD8-88" edge="1">
          <mxGeometry x="-1" y="-47" relative="1" as="geometry">
            <mxPoint x="-7" y="24" as="offset" />
          </mxGeometry>
        </mxCell>
        <mxCell id="W9jZJQIDUN-E1ysLY_Tf-127" value="" style="triangle;whiteSpace=wrap;html=1;direction=north;fillColor=#000000;" parent="1" vertex="1">
          <mxGeometry x="1630" y="502" width="80" height="60" as="geometry" />
        </mxCell>
        <mxCell id="W9jZJQIDUN-E1ysLY_Tf-158" style="rounded=0;orthogonalLoop=1;jettySize=auto;html=1;exitX=0;exitY=0.5;exitDx=0;exitDy=0;endArrow=none;endFill=0;edgeStyle=orthogonalEdgeStyle;" parent="1" source="W9jZJQIDUN-E1ysLY_Tf-139" target="EP_qLhoWPCY1FDuJNaD8-90" edge="1">
          <mxGeometry relative="1" as="geometry" />
        </mxCell>
        <mxCell id="W9jZJQIDUN-E1ysLY_Tf-255" value="&lt;i&gt;&#39;equipamento&#39;&lt;/i&gt;" style="edgeLabel;html=1;align=center;verticalAlign=middle;resizable=0;points=[];" parent="W9jZJQIDUN-E1ysLY_Tf-158" vertex="1" connectable="0">
          <mxGeometry x="0.4607" y="2" relative="1" as="geometry">
            <mxPoint x="-63" y="12" as="offset" />
          </mxGeometry>
        </mxCell>
        <mxCell id="W9jZJQIDUN-E1ysLY_Tf-160" style="rounded=0;orthogonalLoop=1;jettySize=auto;html=1;exitX=0;exitY=0.5;exitDx=0;exitDy=0;endArrow=none;endFill=0;edgeStyle=orthogonalEdgeStyle;" parent="1" source="W9jZJQIDUN-E1ysLY_Tf-139" target="W9jZJQIDUN-E1ysLY_Tf-17" edge="1">
          <mxGeometry relative="1" as="geometry" />
        </mxCell>
        <mxCell id="W9jZJQIDUN-E1ysLY_Tf-254" value="&lt;i&gt;&#39;material&#39;&lt;/i&gt;" style="edgeLabel;html=1;align=center;verticalAlign=middle;resizable=0;points=[];" parent="W9jZJQIDUN-E1ysLY_Tf-160" vertex="1" connectable="0">
          <mxGeometry x="0.0181" y="3" relative="1" as="geometry">
            <mxPoint x="82" y="16" as="offset" />
          </mxGeometry>
        </mxCell>
        <mxCell id="W9jZJQIDUN-E1ysLY_Tf-299" value="(T,E)" style="edgeStyle=orthogonalEdgeStyle;rounded=0;orthogonalLoop=1;jettySize=auto;html=1;shape=link;" parent="1" source="W9jZJQIDUN-E1ysLY_Tf-139" target="EP_qLhoWPCY1FDuJNaD8-86" edge="1">
          <mxGeometry x="-1" y="-40" relative="1" as="geometry">
            <mxPoint x="-5" y="20" as="offset" />
          </mxGeometry>
        </mxCell>
        <mxCell id="W9jZJQIDUN-E1ysLY_Tf-139" value="" style="triangle;whiteSpace=wrap;html=1;direction=north;" parent="1" vertex="1">
          <mxGeometry x="755" y="428" width="80" height="60" as="geometry" />
        </mxCell>
        <mxCell id="W9jZJQIDUN-E1ysLY_Tf-151" value="1" style="edgeStyle=orthogonalEdgeStyle;rounded=0;orthogonalLoop=1;jettySize=auto;html=1;endArrow=none;endFill=0;exitX=1.008;exitY=0.503;exitDx=0;exitDy=0;exitPerimeter=0;" parent="1" source="W9jZJQIDUN-E1ysLY_Tf-150" edge="1">
          <mxGeometry x="0.975" y="10" relative="1" as="geometry">
            <mxPoint x="1110" y="120" as="sourcePoint" />
            <mxPoint x="1820" y="40" as="targetPoint" />
            <Array as="points">
              <mxPoint x="1150" y="80" />
              <mxPoint x="1150" y="40" />
            </Array>
            <mxPoint as="offset" />
          </mxGeometry>
        </mxCell>
        <mxCell id="W9jZJQIDUN-E1ysLY_Tf-150" value="Viagem&lt;br&gt;Rapida" style="html=1;whiteSpace=wrap;aspect=fixed;shape=isoRectangle;rounded=0;shadow=0;glass=0;strokeColor=default;align=center;verticalAlign=middle;fontFamily=Helvetica;fontSize=12;fontColor=default;startSize=30;fillColor=default;" parent="1" vertex="1">
          <mxGeometry x="780" y="44" width="100" height="72" as="geometry" />
        </mxCell>
        <mxCell id="W9jZJQIDUN-E1ysLY_Tf-179" value="Tem" style="html=1;whiteSpace=wrap;aspect=fixed;shape=isoRectangle;rounded=0;shadow=0;glass=0;strokeColor=default;align=center;verticalAlign=middle;fontFamily=Helvetica;fontSize=12;fontColor=default;startSize=30;fillColor=default;direction=south;" parent="1" vertex="1">
          <mxGeometry x="1634" y="180" width="72" height="100" as="geometry" />
        </mxCell>
        <mxCell id="W9jZJQIDUN-E1ysLY_Tf-181" value="1" style="edgeStyle=orthogonalEdgeStyle;rounded=0;orthogonalLoop=1;jettySize=auto;html=1;endArrow=none;endFill=0;entryX=0.084;entryY=1.024;entryDx=0;entryDy=0;entryPerimeter=0;" parent="1" source="W9jZJQIDUN-E1ysLY_Tf-179" target="W9jZJQIDUN-E1ysLY_Tf-287" edge="1">
          <mxGeometry x="0.9359" y="10" relative="1" as="geometry">
            <mxPoint x="1820" y="80" as="targetPoint" />
            <Array as="points">
              <mxPoint x="1670" y="80" />
              <mxPoint x="1828" y="80" />
            </Array>
            <mxPoint as="offset" />
          </mxGeometry>
        </mxCell>
        <mxCell id="W9jZJQIDUN-E1ysLY_Tf-191" style="edgeStyle=orthogonalEdgeStyle;rounded=0;orthogonalLoop=1;jettySize=auto;html=1;endArrow=none;endFill=0;entryX=0.496;entryY=0.901;entryDx=0;entryDy=0;entryPerimeter=0;" parent="1" source="W9jZJQIDUN-E1ysLY_Tf-182" target="W9jZJQIDUN-E1ysLY_Tf-190" edge="1">
          <mxGeometry relative="1" as="geometry" />
        </mxCell>
        <mxCell id="W9jZJQIDUN-E1ysLY_Tf-182" value="Inventario" style="swimlane;fontStyle=1;childLayout=stackLayout;horizontal=1;startSize=30;horizontalStack=0;resizeParent=1;resizeParentMax=0;resizeLast=0;collapsible=1;marginBottom=0;whiteSpace=wrap;html=1;rounded=0;shadow=0;glass=0;strokeColor=default;align=center;verticalAlign=middle;fontFamily=Helvetica;fontSize=13;fontColor=default;fillColor=#888daa;labelBackgroundColor=none;labelBorderColor=none;swimlaneFillColor=none;fillStyle=auto;" parent="1" vertex="1">
          <mxGeometry x="485" y="380" width="100" height="90" as="geometry">
            <mxRectangle x="10" y="120" width="80" height="30" as="alternateBounds" />
          </mxGeometry>
        </mxCell>
        <mxCell id="W9jZJQIDUN-E1ysLY_Tf-258" value="N max de item" style="text;strokeColor=none;fillColor=none;align=left;verticalAlign=middle;spacingLeft=4;spacingRight=4;overflow=hidden;points=[[0,0.5],[1,0.5]];portConstraint=eastwest;rotatable=0;whiteSpace=wrap;html=1;fontSize=12;fontFamily=Helvetica;fontColor=default;labelBackgroundColor=none;labelBorderColor=none;swimlaneFillColor=none;" parent="W9jZJQIDUN-E1ysLY_Tf-182" vertex="1">
          <mxGeometry y="30" width="100" height="30" as="geometry" />
        </mxCell>
        <mxCell id="8cLc6BH1WFFABob_ZuYg-106" value="nome do item" style="text;strokeColor=none;fillColor=none;align=left;verticalAlign=middle;spacingLeft=4;spacingRight=4;overflow=hidden;points=[[0,0.5],[1,0.5]];portConstraint=eastwest;rotatable=0;whiteSpace=wrap;html=1;fontSize=12;fontFamily=Helvetica;fontColor=default;labelBackgroundColor=none;labelBorderColor=none;swimlaneFillColor=none;" parent="W9jZJQIDUN-E1ysLY_Tf-182" vertex="1">
          <mxGeometry y="60" width="100" height="30" as="geometry" />
        </mxCell>
        <mxCell id="W9jZJQIDUN-E1ysLY_Tf-188" style="edgeStyle=orthogonalEdgeStyle;rounded=0;orthogonalLoop=1;jettySize=auto;html=1;endArrow=none;endFill=0;" parent="1" source="W9jZJQIDUN-E1ysLY_Tf-187" target="EP_qLhoWPCY1FDuJNaD8-5" edge="1">
          <mxGeometry relative="1" as="geometry">
            <mxPoint x="369.9000000000001" y="329.4999999999998" as="targetPoint" />
            <Array as="points">
              <mxPoint x="380" y="298" />
              <mxPoint x="380" y="298" />
            </Array>
          </mxGeometry>
        </mxCell>
        <mxCell id="W9jZJQIDUN-E1ysLY_Tf-189" style="edgeStyle=orthogonalEdgeStyle;rounded=0;orthogonalLoop=1;jettySize=auto;html=1;endArrow=none;endFill=0;exitX=0.503;exitY=0.921;exitDx=0;exitDy=0;exitPerimeter=0;shape=link;" parent="1" source="W9jZJQIDUN-E1ysLY_Tf-187" target="W9jZJQIDUN-E1ysLY_Tf-182" edge="1">
          <mxGeometry relative="1" as="geometry" />
        </mxCell>
        <mxCell id="W9jZJQIDUN-E1ysLY_Tf-187" value="Tem" style="html=1;whiteSpace=wrap;aspect=fixed;shape=isoRectangle;rounded=0;shadow=0;glass=0;strokeColor=default;align=center;verticalAlign=middle;fontFamily=Helvetica;fontSize=12;fontColor=default;startSize=30;fillColor=default;direction=east;" parent="1" vertex="1">
          <mxGeometry x="485" y="262" width="100" height="72" as="geometry" />
        </mxCell>
        <mxCell id="W9jZJQIDUN-E1ysLY_Tf-192" style="edgeStyle=orthogonalEdgeStyle;rounded=0;orthogonalLoop=1;jettySize=auto;html=1;endArrow=none;endFill=0;" parent="1" source="W9jZJQIDUN-E1ysLY_Tf-190" target="EP_qLhoWPCY1FDuJNaD8-86" edge="1">
          <mxGeometry relative="1" as="geometry">
            <Array as="points">
              <mxPoint x="730" y="335" />
              <mxPoint x="730" y="335" />
            </Array>
          </mxGeometry>
        </mxCell>
        <mxCell id="W9jZJQIDUN-E1ysLY_Tf-190" value="Guarda" style="html=1;whiteSpace=wrap;aspect=fixed;shape=isoRectangle;rounded=0;shadow=0;glass=0;strokeColor=default;align=center;verticalAlign=middle;fontFamily=Helvetica;fontSize=12;fontColor=default;startSize=30;fillColor=default;direction=east;" parent="1" vertex="1">
          <mxGeometry x="596" y="299" width="100" height="72" as="geometry" />
        </mxCell>
        <mxCell id="W9jZJQIDUN-E1ysLY_Tf-193" value="Tem" style="html=1;whiteSpace=wrap;aspect=fixed;shape=isoRectangle;rounded=0;shadow=0;glass=0;strokeColor=default;align=center;verticalAlign=middle;fontFamily=Helvetica;fontSize=12;fontColor=default;startSize=30;fillColor=default;direction=east;" parent="1" vertex="1">
          <mxGeometry x="488" y="264.15999999999997" width="94" height="67.68" as="geometry" />
        </mxCell>
        <mxCell id="W9jZJQIDUN-E1ysLY_Tf-196" value="1" style="edgeStyle=orthogonalEdgeStyle;rounded=0;orthogonalLoop=1;jettySize=auto;html=1;endArrow=none;endFill=0;" parent="1" source="W9jZJQIDUN-E1ysLY_Tf-194" target="EP_qLhoWPCY1FDuJNaD8-27" edge="1">
          <mxGeometry x="0.9603" y="10" relative="1" as="geometry">
            <Array as="points">
              <mxPoint x="1360" y="74" />
              <mxPoint x="1360" y="60" />
            </Array>
            <mxPoint as="offset" />
          </mxGeometry>
        </mxCell>
        <mxCell id="W9jZJQIDUN-E1ysLY_Tf-194" value="Podem Ter" style="html=1;whiteSpace=wrap;aspect=fixed;shape=isoRectangle;rounded=0;shadow=0;glass=0;strokeColor=default;align=center;verticalAlign=middle;fontFamily=Helvetica;fontSize=12;fontColor=default;startSize=30;fillColor=default;direction=west;" parent="1" vertex="1">
          <mxGeometry x="1230" y="38" width="100" height="72" as="geometry" />
        </mxCell>
        <mxCell id="W9jZJQIDUN-E1ysLY_Tf-207" value="0..1" style="edgeStyle=orthogonalEdgeStyle;rounded=0;orthogonalLoop=1;jettySize=auto;html=1;endArrow=none;endFill=0;" parent="1" source="W9jZJQIDUN-E1ysLY_Tf-206" target="EP_qLhoWPCY1FDuJNaD8-47" edge="1">
          <mxGeometry x="0.9" y="30" relative="1" as="geometry">
            <Array as="points">
              <mxPoint x="1956" y="420" />
              <mxPoint x="2100" y="420" />
            </Array>
            <mxPoint as="offset" />
          </mxGeometry>
        </mxCell>
        <mxCell id="W9jZJQIDUN-E1ysLY_Tf-208" value="1" style="edgeStyle=orthogonalEdgeStyle;rounded=0;orthogonalLoop=1;jettySize=auto;html=1;endArrow=none;endFill=0;entryX=-0.004;entryY=0.666;entryDx=0;entryDy=0;entryPerimeter=0;" parent="1" source="W9jZJQIDUN-E1ysLY_Tf-206" target="EP_qLhoWPCY1FDuJNaD8-44" edge="1">
          <mxGeometry x="0.7207" y="10" relative="1" as="geometry">
            <mxPoint x="2040" y="240" as="targetPoint" />
            <Array as="points">
              <mxPoint x="1956" y="230" />
            </Array>
            <mxPoint as="offset" />
          </mxGeometry>
        </mxCell>
        <mxCell id="W9jZJQIDUN-E1ysLY_Tf-206" value="Saida" style="html=1;whiteSpace=wrap;aspect=fixed;shape=isoRectangle;rounded=0;shadow=0;glass=0;strokeColor=default;align=center;verticalAlign=middle;fontFamily=Helvetica;fontSize=12;fontColor=default;startSize=30;fillColor=default;direction=south;" parent="1" vertex="1">
          <mxGeometry x="1920" y="280" width="72" height="100" as="geometry" />
        </mxCell>
        <mxCell id="W9jZJQIDUN-E1ysLY_Tf-218" value="0..1" style="edgeStyle=orthogonalEdgeStyle;rounded=0;orthogonalLoop=1;jettySize=auto;html=1;endArrow=none;endFill=0;jumpStyle=sharp;" parent="1" target="EP_qLhoWPCY1FDuJNaD8-90" edge="1">
          <mxGeometry x="0.9813" y="20" relative="1" as="geometry">
            <Array as="points">
              <mxPoint x="1776" y="790" />
              <mxPoint x="660" y="790" />
            </Array>
            <mxPoint as="offset" />
            <mxPoint x="1775.997037037037" y="358.96" as="sourcePoint" />
            <mxPoint x="660" y="650" as="targetPoint" />
          </mxGeometry>
        </mxCell>
        <mxCell id="W9jZJQIDUN-E1ysLY_Tf-219" value="1" style="edgeStyle=orthogonalEdgeStyle;rounded=0;orthogonalLoop=1;jettySize=auto;html=1;endArrow=none;endFill=0;jumpStyle=sharp;" parent="1" source="W9jZJQIDUN-E1ysLY_Tf-217" target="EP_qLhoWPCY1FDuJNaD8-43" edge="1">
          <mxGeometry x="0.8806" y="10" relative="1" as="geometry">
            <Array as="points">
              <mxPoint x="1776" y="210" />
            </Array>
            <mxPoint as="offset" />
          </mxGeometry>
        </mxCell>
        <mxCell id="W9jZJQIDUN-E1ysLY_Tf-217" value="É pre&lt;br&gt;requisito" style="html=1;whiteSpace=wrap;aspect=fixed;shape=isoRectangle;rounded=0;shadow=0;glass=0;strokeColor=default;align=center;verticalAlign=middle;fontFamily=Helvetica;fontSize=12;fontColor=default;startSize=30;fillColor=default;direction=south;" parent="1" vertex="1">
          <mxGeometry x="1740" y="271" width="72" height="100" as="geometry" />
        </mxCell>
        <mxCell id="W9jZJQIDUN-E1ysLY_Tf-269" value="1" style="edgeStyle=orthogonalEdgeStyle;rounded=0;orthogonalLoop=1;jettySize=auto;html=1;endArrow=none;endFill=0;" parent="1" source="W9jZJQIDUN-E1ysLY_Tf-225" target="W9jZJQIDUN-E1ysLY_Tf-268" edge="1">
          <mxGeometry x="-0.8596" y="20" relative="1" as="geometry">
            <Array as="points">
              <mxPoint x="1016" y="319" />
            </Array>
            <mxPoint as="offset" />
          </mxGeometry>
        </mxCell>
        <mxCell id="W9jZJQIDUN-E1ysLY_Tf-284" value="1" style="edgeStyle=orthogonalEdgeStyle;rounded=0;orthogonalLoop=1;jettySize=auto;html=1;endArrow=none;endFill=0;entryX=0.501;entryY=0.095;entryDx=0;entryDy=0;entryPerimeter=0;" parent="1" source="W9jZJQIDUN-E1ysLY_Tf-225" target="W9jZJQIDUN-E1ysLY_Tf-285" edge="1">
          <mxGeometry x="-0.8718" y="10" relative="1" as="geometry">
            <mxPoint x="1450" y="330" as="targetPoint" />
            <Array as="points">
              <mxPoint x="1410" y="289" />
            </Array>
            <mxPoint as="offset" />
          </mxGeometry>
        </mxCell>
        <mxCell id="W9jZJQIDUN-E1ysLY_Tf-225" value="Evento" style="swimlane;fontStyle=1;childLayout=stackLayout;horizontal=1;startSize=30;horizontalStack=0;resizeParent=1;resizeParentMax=0;resizeLast=0;collapsible=1;marginBottom=0;whiteSpace=wrap;html=1;rounded=0;shadow=0;glass=0;strokeColor=default;align=center;verticalAlign=middle;fontFamily=Helvetica;fontSize=13;fontColor=default;fillColor=#888daa;labelBackgroundColor=none;labelBorderColor=none;swimlaneFillColor=none;fillStyle=auto;" parent="1" vertex="1">
          <mxGeometry x="1230" y="191" width="100" height="180" as="geometry">
            <mxRectangle x="10" y="120" width="80" height="30" as="alternateBounds" />
          </mxGeometry>
        </mxCell>
        <mxCell id="W9jZJQIDUN-E1ysLY_Tf-229" value="&lt;u&gt;idevento&lt;/u&gt;" style="text;strokeColor=none;fillColor=none;align=left;verticalAlign=middle;spacingLeft=4;spacingRight=4;overflow=hidden;points=[[0,0.5],[1,0.5]];portConstraint=eastwest;rotatable=0;whiteSpace=wrap;html=1;fontSize=12;fontFamily=Helvetica;fontColor=default;labelBackgroundColor=none;labelBorderColor=none;swimlaneFillColor=none;" parent="W9jZJQIDUN-E1ysLY_Tf-225" vertex="1">
          <mxGeometry y="30" width="100" height="30" as="geometry" />
        </mxCell>
        <mxCell id="8cLc6BH1WFFABob_ZuYg-83" value="ja disparado" style="text;strokeColor=none;fillColor=none;align=left;verticalAlign=middle;spacingLeft=4;spacingRight=4;overflow=hidden;points=[[0,0.5],[1,0.5]];portConstraint=eastwest;rotatable=0;whiteSpace=wrap;html=1;fontSize=12;fontFamily=Helvetica;fontColor=default;labelBackgroundColor=none;labelBorderColor=none;swimlaneFillColor=none;" parent="W9jZJQIDUN-E1ysLY_Tf-225" vertex="1">
          <mxGeometry y="60" width="100" height="30" as="geometry" />
        </mxCell>
        <mxCell id="W9jZJQIDUN-E1ysLY_Tf-230" value="Descrição" style="text;strokeColor=none;fillColor=none;align=left;verticalAlign=middle;spacingLeft=4;spacingRight=4;overflow=hidden;points=[[0,0.5],[1,0.5]];portConstraint=eastwest;rotatable=0;whiteSpace=wrap;html=1;fontSize=12;fontFamily=Helvetica;fontColor=default;labelBackgroundColor=none;labelBorderColor=none;swimlaneFillColor=none;" parent="W9jZJQIDUN-E1ysLY_Tf-225" vertex="1">
          <mxGeometry y="90" width="100" height="30" as="geometry" />
        </mxCell>
        <mxCell id="8cLc6BH1WFFABob_ZuYg-96" value="resultado" style="text;strokeColor=none;fillColor=none;align=left;verticalAlign=middle;spacingLeft=4;spacingRight=4;overflow=hidden;points=[[0,0.5],[1,0.5]];portConstraint=eastwest;rotatable=0;whiteSpace=wrap;html=1;fontSize=12;fontFamily=Helvetica;fontColor=default;labelBackgroundColor=none;labelBorderColor=none;swimlaneFillColor=none;" parent="W9jZJQIDUN-E1ysLY_Tf-225" vertex="1">
          <mxGeometry y="120" width="100" height="30" as="geometry" />
        </mxCell>
        <mxCell id="8cLc6BH1WFFABob_ZuYg-80" value="Tipo gatilho" style="text;strokeColor=none;fillColor=none;align=left;verticalAlign=middle;spacingLeft=4;spacingRight=4;overflow=hidden;points=[[0,0.5],[1,0.5]];portConstraint=eastwest;rotatable=0;whiteSpace=wrap;html=1;fontSize=12;fontFamily=Helvetica;fontColor=default;labelBackgroundColor=none;labelBorderColor=none;swimlaneFillColor=none;" parent="W9jZJQIDUN-E1ysLY_Tf-225" vertex="1">
          <mxGeometry y="150" width="100" height="30" as="geometry" />
        </mxCell>
        <mxCell id="W9jZJQIDUN-E1ysLY_Tf-260" value="Dialogo" style="swimlane;fontStyle=1;childLayout=stackLayout;horizontal=1;startSize=30;horizontalStack=0;resizeParent=1;resizeParentMax=0;resizeLast=0;collapsible=1;marginBottom=0;whiteSpace=wrap;html=1;rounded=0;shadow=0;glass=0;strokeColor=default;align=center;verticalAlign=middle;fontFamily=Helvetica;fontSize=13;fontColor=default;fillColor=#888daa;labelBackgroundColor=none;labelBorderColor=none;swimlaneFillColor=none;fillStyle=auto;" parent="1" vertex="1">
          <mxGeometry x="380" y="494" width="100" height="150" as="geometry">
            <mxRectangle x="10" y="120" width="80" height="30" as="alternateBounds" />
          </mxGeometry>
        </mxCell>
        <mxCell id="W9jZJQIDUN-E1ysLY_Tf-261" value="id Dialogo" style="text;strokeColor=none;fillColor=none;align=left;verticalAlign=middle;spacingLeft=4;spacingRight=4;overflow=hidden;points=[[0,0.5],[1,0.5]];portConstraint=eastwest;rotatable=0;whiteSpace=wrap;html=1;fontSize=12;fontFamily=Helvetica;fontColor=default;labelBackgroundColor=none;labelBorderColor=none;swimlaneFillColor=none;" parent="W9jZJQIDUN-E1ysLY_Tf-260" vertex="1">
          <mxGeometry y="30" width="100" height="30" as="geometry" />
        </mxCell>
        <mxCell id="W9jZJQIDUN-E1ysLY_Tf-266" value="texto" style="text;strokeColor=none;fillColor=none;align=left;verticalAlign=middle;spacingLeft=4;spacingRight=4;overflow=hidden;points=[[0,0.5],[1,0.5]];portConstraint=eastwest;rotatable=0;whiteSpace=wrap;html=1;fontSize=12;fontFamily=Helvetica;fontColor=default;labelBackgroundColor=none;labelBorderColor=none;swimlaneFillColor=none;" parent="W9jZJQIDUN-E1ysLY_Tf-260" vertex="1">
          <mxGeometry y="60" width="100" height="30" as="geometry" />
        </mxCell>
        <mxCell id="W9jZJQIDUN-E1ysLY_Tf-289" value="alternativas" style="text;strokeColor=none;fillColor=none;align=left;verticalAlign=middle;spacingLeft=4;spacingRight=4;overflow=hidden;points=[[0,0.5],[1,0.5]];portConstraint=eastwest;rotatable=0;whiteSpace=wrap;html=1;fontSize=12;fontFamily=Helvetica;fontColor=default;labelBackgroundColor=none;labelBorderColor=none;swimlaneFillColor=none;" parent="W9jZJQIDUN-E1ysLY_Tf-260" vertex="1">
          <mxGeometry y="90" width="100" height="30" as="geometry" />
        </mxCell>
        <mxCell id="W9jZJQIDUN-E1ysLY_Tf-262" value="Nomes dos participantes" style="text;strokeColor=none;fillColor=none;align=left;verticalAlign=middle;spacingLeft=4;spacingRight=4;overflow=hidden;points=[[0,0.5],[1,0.5]];portConstraint=eastwest;rotatable=0;whiteSpace=wrap;html=1;fontSize=12;fontFamily=Helvetica;fontColor=default;labelBackgroundColor=none;labelBorderColor=none;swimlaneFillColor=none;" parent="W9jZJQIDUN-E1ysLY_Tf-260" vertex="1">
          <mxGeometry y="120" width="100" height="30" as="geometry" />
        </mxCell>
        <mxCell id="W9jZJQIDUN-E1ysLY_Tf-270" value="0..1" style="edgeStyle=orthogonalEdgeStyle;rounded=0;orthogonalLoop=1;jettySize=auto;html=1;jumpStyle=sharp;endArrow=none;endFill=0;" parent="1" source="W9jZJQIDUN-E1ysLY_Tf-268" target="W9jZJQIDUN-E1ysLY_Tf-260" edge="1">
          <mxGeometry x="0.9693" y="15" relative="1" as="geometry">
            <Array as="points">
              <mxPoint x="1016" y="730" />
              <mxPoint x="535" y="730" />
            </Array>
            <mxPoint as="offset" />
          </mxGeometry>
        </mxCell>
        <mxCell id="W9jZJQIDUN-E1ysLY_Tf-268" value="Gera" style="html=1;whiteSpace=wrap;aspect=fixed;shape=isoRectangle;rounded=0;shadow=0;glass=0;strokeColor=default;align=center;verticalAlign=middle;fontFamily=Helvetica;fontSize=12;fontColor=default;startSize=30;fillColor=default;direction=north;" parent="1" vertex="1">
          <mxGeometry x="980" y="470" width="72" height="100" as="geometry" />
        </mxCell>
        <mxCell id="W9jZJQIDUN-E1ysLY_Tf-286" value="0..N" style="edgeStyle=orthogonalEdgeStyle;rounded=0;orthogonalLoop=1;jettySize=auto;html=1;endArrow=none;endFill=0;" parent="1" source="W9jZJQIDUN-E1ysLY_Tf-285" target="EP_qLhoWPCY1FDuJNaD8-88" edge="1">
          <mxGeometry x="0.6188" y="20" relative="1" as="geometry">
            <Array as="points">
              <mxPoint x="1526" y="370" />
            </Array>
            <mxPoint x="1620" y="650" as="targetPoint" />
            <mxPoint as="offset" />
          </mxGeometry>
        </mxCell>
        <mxCell id="W9jZJQIDUN-E1ysLY_Tf-285" value="Altera" style="html=1;whiteSpace=wrap;aspect=fixed;shape=isoRectangle;rounded=0;shadow=0;glass=0;strokeColor=default;align=center;verticalAlign=middle;fontFamily=Helvetica;fontSize=12;fontColor=default;startSize=30;fillColor=default;direction=north;" parent="1" vertex="1">
          <mxGeometry x="1490" y="239" width="72" height="100" as="geometry" />
        </mxCell>
        <mxCell id="W9jZJQIDUN-E1ysLY_Tf-317" value="1" style="edgeStyle=orthogonalEdgeStyle;rounded=0;orthogonalLoop=1;jettySize=auto;html=1;jumpStyle=sharp;endArrow=none;endFill=0;" parent="1" source="W9jZJQIDUN-E1ysLY_Tf-316" target="W9jZJQIDUN-E1ysLY_Tf-225" edge="1">
          <mxGeometry x="0.8865" y="10" relative="1" as="geometry">
            <Array as="points">
              <mxPoint x="1300" y="266" />
            </Array>
            <mxPoint as="offset" />
          </mxGeometry>
        </mxCell>
        <mxCell id="W9jZJQIDUN-E1ysLY_Tf-318" value="0..1" style="edgeStyle=orthogonalEdgeStyle;rounded=0;orthogonalLoop=1;jettySize=auto;html=1;jumpStyle=sharp;endArrow=none;endFill=0;exitX=0.495;exitY=0.882;exitDx=0;exitDy=0;exitPerimeter=0;" parent="1" source="W9jZJQIDUN-E1ysLY_Tf-316" target="EP_qLhoWPCY1FDuJNaD8-86" edge="1">
          <mxGeometry x="0.8267" y="-10" relative="1" as="geometry">
            <Array as="points">
              <mxPoint x="970" y="350" />
            </Array>
            <mxPoint as="offset" />
          </mxGeometry>
        </mxCell>
        <mxCell id="W9jZJQIDUN-E1ysLY_Tf-316" value="Gera" style="html=1;whiteSpace=wrap;aspect=fixed;shape=isoRectangle;rounded=0;shadow=0;glass=0;strokeColor=default;align=center;verticalAlign=middle;fontFamily=Helvetica;fontSize=12;fontColor=default;startSize=30;fillColor=default;direction=east;" parent="1" vertex="1">
          <mxGeometry x="920" y="230" width="100" height="72" as="geometry" />
        </mxCell>
        <mxCell id="HM1OqKwvqyBgG8QLrfGv-1" value="" style="rounded=0;whiteSpace=wrap;html=1;fillColor=none;" parent="1" vertex="1">
          <mxGeometry x="487" y="382" width="96" height="26" as="geometry" />
        </mxCell>
        <mxCell id="8cLc6BH1WFFABob_ZuYg-5" value="1" style="edgeStyle=orthogonalEdgeStyle;rounded=0;orthogonalLoop=1;jettySize=auto;html=1;endArrow=none;endFill=0;entryX=0;entryY=0.497;entryDx=0;entryDy=0;entryPerimeter=0;" parent="1" source="8cLc6BH1WFFABob_ZuYg-2" target="W9jZJQIDUN-E1ysLY_Tf-120" edge="1">
          <mxGeometry x="-0.8934" y="-10" relative="1" as="geometry">
            <mxPoint x="130" y="492" as="targetPoint" />
            <Array as="points">
              <mxPoint x="90" y="715" />
              <mxPoint x="160" y="715" />
              <mxPoint x="160" y="486" />
              <mxPoint x="130" y="486" />
            </Array>
            <mxPoint as="offset" />
          </mxGeometry>
        </mxCell>
        <mxCell id="8cLc6BH1WFFABob_ZuYg-2" value="Comandos" style="swimlane;fontStyle=1;childLayout=stackLayout;horizontal=1;startSize=30;horizontalStack=0;resizeParent=1;resizeParentMax=0;resizeLast=0;collapsible=1;marginBottom=0;whiteSpace=wrap;html=1;rounded=0;shadow=0;glass=0;strokeColor=default;align=center;verticalAlign=middle;fontFamily=Helvetica;fontSize=13;fontColor=default;fillColor=#888daa;labelBackgroundColor=none;labelBorderColor=none;swimlaneFillColor=none;fillStyle=auto;" parent="1" vertex="1">
          <mxGeometry x="20" y="685" width="100" height="120" as="geometry">
            <mxRectangle x="10" y="120" width="80" height="30" as="alternateBounds" />
          </mxGeometry>
        </mxCell>
        <mxCell id="8cLc6BH1WFFABob_ZuYg-3" value="&lt;u&gt;id funçao&lt;/u&gt;" style="text;strokeColor=none;fillColor=none;align=left;verticalAlign=middle;spacingLeft=4;spacingRight=4;overflow=hidden;points=[[0,0.5],[1,0.5]];portConstraint=eastwest;rotatable=0;whiteSpace=wrap;html=1;fontSize=12;fontFamily=Helvetica;fontColor=default;labelBackgroundColor=none;labelBorderColor=none;swimlaneFillColor=none;" parent="8cLc6BH1WFFABob_ZuYg-2" vertex="1">
          <mxGeometry y="30" width="100" height="30" as="geometry" />
        </mxCell>
        <mxCell id="8cLc6BH1WFFABob_ZuYg-6" value="funcao" style="text;strokeColor=none;fillColor=none;align=left;verticalAlign=middle;spacingLeft=4;spacingRight=4;overflow=hidden;points=[[0,0.5],[1,0.5]];portConstraint=eastwest;rotatable=0;whiteSpace=wrap;html=1;fontSize=12;fontFamily=Helvetica;fontColor=default;labelBackgroundColor=none;labelBorderColor=none;swimlaneFillColor=none;" parent="8cLc6BH1WFFABob_ZuYg-2" vertex="1">
          <mxGeometry y="60" width="100" height="30" as="geometry" />
        </mxCell>
        <mxCell id="8cLc6BH1WFFABob_ZuYg-4" value="mensagem de erro" style="text;strokeColor=none;fillColor=none;align=left;verticalAlign=middle;spacingLeft=4;spacingRight=4;overflow=hidden;points=[[0,0.5],[1,0.5]];portConstraint=eastwest;rotatable=0;whiteSpace=wrap;html=1;fontSize=12;fontFamily=Helvetica;fontColor=default;labelBackgroundColor=none;labelBorderColor=none;swimlaneFillColor=none;" parent="8cLc6BH1WFFABob_ZuYg-2" vertex="1">
          <mxGeometry y="90" width="100" height="30" as="geometry" />
        </mxCell>
        <mxCell id="8cLc6BH1WFFABob_ZuYg-20" value="" style="edgeStyle=orthogonalEdgeStyle;rounded=0;orthogonalLoop=1;jettySize=auto;html=1;jumpStyle=sharp;endArrow=none;endFill=0;" parent="1" source="8cLc6BH1WFFABob_ZuYg-15" target="EP_qLhoWPCY1FDuJNaD8-43" edge="1">
          <mxGeometry x="0.9512" y="10" relative="1" as="geometry">
            <Array as="points">
              <mxPoint x="1320" y="170" />
              <mxPoint x="1320" y="120" />
              <mxPoint x="1750" y="120" />
              <mxPoint x="1750" y="190" />
            </Array>
            <mxPoint as="offset" />
          </mxGeometry>
        </mxCell>
        <mxCell id="8cLc6BH1WFFABob_ZuYg-23" value="0..N" style="edgeLabel;html=1;align=center;verticalAlign=middle;resizable=0;points=[];" parent="8cLc6BH1WFFABob_ZuYg-20" vertex="1" connectable="0">
          <mxGeometry x="0.956" y="11" relative="1" as="geometry">
            <mxPoint x="13" y="-3" as="offset" />
          </mxGeometry>
        </mxCell>
        <mxCell id="8cLc6BH1WFFABob_ZuYg-21" value="1..N" style="edgeStyle=orthogonalEdgeStyle;rounded=0;orthogonalLoop=1;jettySize=auto;html=1;entryX=0.499;entryY=0.904;entryDx=0;entryDy=0;entryPerimeter=0;endArrow=none;endFill=0;" parent="1" source="8cLc6BH1WFFABob_ZuYg-15" target="W9jZJQIDUN-E1ysLY_Tf-150" edge="1">
          <mxGeometry x="-0.9202" y="20" relative="1" as="geometry">
            <Array as="points">
              <mxPoint x="610" y="120" />
              <mxPoint x="830" y="120" />
            </Array>
            <mxPoint as="offset" />
          </mxGeometry>
        </mxCell>
        <mxCell id="8cLc6BH1WFFABob_ZuYg-33" value="(T,E)" style="edgeStyle=orthogonalEdgeStyle;rounded=0;orthogonalLoop=1;jettySize=auto;html=1;shape=link;" parent="1" source="8cLc6BH1WFFABob_ZuYg-34" target="W9jZJQIDUN-E1ysLY_Tf-225" edge="1">
          <mxGeometry x="-1" y="-40" relative="1" as="geometry">
            <mxPoint x="1280" y="338" as="targetPoint" />
            <mxPoint x="-5" y="20" as="offset" />
          </mxGeometry>
        </mxCell>
        <mxCell id="8cLc6BH1WFFABob_ZuYg-49" value="" style="edgeStyle=orthogonalEdgeStyle;rounded=0;orthogonalLoop=1;jettySize=auto;html=1;entryX=0.5;entryY=0;entryDx=0;entryDy=0;endArrow=none;endFill=0;" parent="1" source="8cLc6BH1WFFABob_ZuYg-34" target="8cLc6BH1WFFABob_ZuYg-39" edge="1">
          <mxGeometry relative="1" as="geometry">
            <Array as="points" />
          </mxGeometry>
        </mxCell>
        <mxCell id="8cLc6BH1WFFABob_ZuYg-50" style="edgeStyle=orthogonalEdgeStyle;rounded=0;orthogonalLoop=1;jettySize=auto;html=1;exitX=0;exitY=0.5;exitDx=0;exitDy=0;endArrow=none;endFill=0;" parent="1" source="8cLc6BH1WFFABob_ZuYg-34" target="8cLc6BH1WFFABob_ZuYg-41" edge="1">
          <mxGeometry relative="1" as="geometry" />
        </mxCell>
        <mxCell id="8cLc6BH1WFFABob_ZuYg-51" style="edgeStyle=orthogonalEdgeStyle;rounded=0;orthogonalLoop=1;jettySize=auto;html=1;exitX=0;exitY=0.5;exitDx=0;exitDy=0;endArrow=none;endFill=0;" parent="1" source="8cLc6BH1WFFABob_ZuYg-34" target="8cLc6BH1WFFABob_ZuYg-43" edge="1">
          <mxGeometry relative="1" as="geometry" />
        </mxCell>
        <mxCell id="8cLc6BH1WFFABob_ZuYg-34" value="" style="triangle;whiteSpace=wrap;html=1;direction=north;" parent="1" vertex="1">
          <mxGeometry x="1240" y="389" width="80" height="60" as="geometry" />
        </mxCell>
        <mxCell id="8cLc6BH1WFFABob_ZuYg-39" value="Entrar Sala" style="swimlane;fontStyle=1;childLayout=stackLayout;horizontal=1;startSize=30;horizontalStack=0;resizeParent=1;resizeParentMax=0;resizeLast=0;collapsible=1;marginBottom=0;whiteSpace=wrap;html=1;rounded=0;shadow=0;glass=0;strokeColor=default;align=center;verticalAlign=middle;fontFamily=Helvetica;fontSize=13;fontColor=default;fillColor=#888daa;labelBackgroundColor=none;labelBorderColor=none;swimlaneFillColor=none;fillStyle=auto;" parent="1" vertex="1">
          <mxGeometry x="1230" y="510" width="100" height="90" as="geometry">
            <mxRectangle x="10" y="120" width="80" height="30" as="alternateBounds" />
          </mxGeometry>
        </mxCell>
        <mxCell id="8cLc6BH1WFFABob_ZuYg-40" value="localização" style="text;strokeColor=none;fillColor=none;align=left;verticalAlign=middle;spacingLeft=4;spacingRight=4;overflow=hidden;points=[[0,0.5],[1,0.5]];portConstraint=eastwest;rotatable=0;whiteSpace=wrap;html=1;fontSize=12;fontFamily=Helvetica;fontColor=default;labelBackgroundColor=none;labelBorderColor=none;swimlaneFillColor=none;" parent="8cLc6BH1WFFABob_ZuYg-39" vertex="1">
          <mxGeometry y="30" width="100" height="30" as="geometry" />
        </mxCell>
        <mxCell id="svqt2gbtiOX3JFMTlLOE-8" value="Pre requisito" style="text;strokeColor=none;fillColor=none;align=left;verticalAlign=middle;spacingLeft=4;spacingRight=4;overflow=hidden;points=[[0,0.5],[1,0.5]];portConstraint=eastwest;rotatable=0;whiteSpace=wrap;html=1;fontSize=12;fontFamily=Helvetica;fontColor=default;labelBackgroundColor=none;labelBorderColor=none;swimlaneFillColor=none;" parent="8cLc6BH1WFFABob_ZuYg-39" vertex="1">
          <mxGeometry y="60" width="100" height="30" as="geometry" />
        </mxCell>
        <mxCell id="8cLc6BH1WFFABob_ZuYg-68" style="edgeStyle=orthogonalEdgeStyle;rounded=0;orthogonalLoop=1;jettySize=auto;html=1;entryX=0.5;entryY=0.098;entryDx=0;entryDy=0;entryPerimeter=0;endArrow=none;endFill=0;" parent="1" source="8cLc6BH1WFFABob_ZuYg-41" target="8cLc6BH1WFFABob_ZuYg-66" edge="1">
          <mxGeometry relative="1" as="geometry" />
        </mxCell>
        <mxCell id="8cLc6BH1WFFABob_ZuYg-72" value="&lt;i&gt;Gera&lt;/i&gt;" style="edgeLabel;html=1;align=center;verticalAlign=middle;resizable=0;points=[];" parent="8cLc6BH1WFFABob_ZuYg-68" vertex="1" connectable="0">
          <mxGeometry x="-0.4455" y="3" relative="1" as="geometry">
            <mxPoint x="17" as="offset" />
          </mxGeometry>
        </mxCell>
        <mxCell id="8cLc6BH1WFFABob_ZuYg-73" value="0..1" style="edgeLabel;html=1;align=center;verticalAlign=middle;resizable=0;points=[];" parent="8cLc6BH1WFFABob_ZuYg-68" vertex="1" connectable="0">
          <mxGeometry x="0.0576" y="3" relative="1" as="geometry">
            <mxPoint x="-23" y="1" as="offset" />
          </mxGeometry>
        </mxCell>
        <mxCell id="8cLc6BH1WFFABob_ZuYg-41" value="Interagir" style="swimlane;fontStyle=1;childLayout=stackLayout;horizontal=1;startSize=30;horizontalStack=0;resizeParent=1;resizeParentMax=0;resizeLast=0;collapsible=1;marginBottom=0;whiteSpace=wrap;html=1;rounded=0;shadow=0;glass=0;strokeColor=default;align=center;verticalAlign=middle;fontFamily=Helvetica;fontSize=13;fontColor=default;fillColor=#888daa;labelBackgroundColor=none;labelBorderColor=none;swimlaneFillColor=none;fillStyle=auto;" parent="1" vertex="1">
          <mxGeometry x="1380" y="510" width="100" height="90" as="geometry">
            <mxRectangle x="10" y="120" width="80" height="30" as="alternateBounds" />
          </mxGeometry>
        </mxCell>
        <mxCell id="8cLc6BH1WFFABob_ZuYg-99" value="precisa de item" style="text;strokeColor=none;fillColor=none;align=left;verticalAlign=middle;spacingLeft=4;spacingRight=4;overflow=hidden;points=[[0,0.5],[1,0.5]];portConstraint=eastwest;rotatable=0;whiteSpace=wrap;html=1;fontSize=12;fontFamily=Helvetica;fontColor=default;labelBackgroundColor=none;labelBorderColor=none;swimlaneFillColor=none;" parent="8cLc6BH1WFFABob_ZuYg-41" vertex="1">
          <mxGeometry y="30" width="100" height="30" as="geometry" />
        </mxCell>
        <mxCell id="svqt2gbtiOX3JFMTlLOE-6" value="Consome item" style="text;strokeColor=none;fillColor=none;align=left;verticalAlign=middle;spacingLeft=4;spacingRight=4;overflow=hidden;points=[[0,0.5],[1,0.5]];portConstraint=eastwest;rotatable=0;whiteSpace=wrap;html=1;fontSize=12;fontFamily=Helvetica;fontColor=default;labelBackgroundColor=none;labelBorderColor=none;swimlaneFillColor=none;" parent="8cLc6BH1WFFABob_ZuYg-41" vertex="1">
          <mxGeometry y="60" width="100" height="30" as="geometry" />
        </mxCell>
        <mxCell id="8cLc6BH1WFFABob_ZuYg-43" value="Conversar" style="swimlane;fontStyle=1;childLayout=stackLayout;horizontal=1;startSize=30;horizontalStack=0;resizeParent=1;resizeParentMax=0;resizeLast=0;collapsible=1;marginBottom=0;whiteSpace=wrap;html=1;rounded=0;shadow=0;glass=0;strokeColor=default;align=center;verticalAlign=middle;fontFamily=Helvetica;fontSize=13;fontColor=default;fillColor=#888daa;labelBackgroundColor=none;labelBorderColor=none;swimlaneFillColor=none;fillStyle=auto;" parent="1" vertex="1">
          <mxGeometry x="1080" y="510" width="100" height="120" as="geometry">
            <mxRectangle x="10" y="120" width="80" height="30" as="alternateBounds" />
          </mxGeometry>
        </mxCell>
        <mxCell id="8cLc6BH1WFFABob_ZuYg-84" value="participantes" style="text;strokeColor=none;fillColor=none;align=left;verticalAlign=middle;spacingLeft=4;spacingRight=4;overflow=hidden;points=[[0,0.5],[1,0.5]];portConstraint=eastwest;rotatable=0;whiteSpace=wrap;html=1;fontSize=12;fontFamily=Helvetica;fontColor=default;labelBackgroundColor=none;labelBorderColor=none;swimlaneFillColor=none;" parent="8cLc6BH1WFFABob_ZuYg-43" vertex="1">
          <mxGeometry y="30" width="100" height="30" as="geometry" />
        </mxCell>
        <mxCell id="svqt2gbtiOX3JFMTlLOE-5" value="local" style="text;strokeColor=none;fillColor=none;align=left;verticalAlign=middle;spacingLeft=4;spacingRight=4;overflow=hidden;points=[[0,0.5],[1,0.5]];portConstraint=eastwest;rotatable=0;whiteSpace=wrap;html=1;fontSize=12;fontFamily=Helvetica;fontColor=default;labelBackgroundColor=none;labelBorderColor=none;swimlaneFillColor=none;" parent="8cLc6BH1WFFABob_ZuYg-43" vertex="1">
          <mxGeometry y="60" width="100" height="30" as="geometry" />
        </mxCell>
        <mxCell id="8cLc6BH1WFFABob_ZuYg-98" value="Unica" style="text;strokeColor=none;fillColor=none;align=left;verticalAlign=middle;spacingLeft=4;spacingRight=4;overflow=hidden;points=[[0,0.5],[1,0.5]];portConstraint=eastwest;rotatable=0;whiteSpace=wrap;html=1;fontSize=12;fontFamily=Helvetica;fontColor=default;labelBackgroundColor=none;labelBorderColor=none;swimlaneFillColor=none;" parent="8cLc6BH1WFFABob_ZuYg-43" vertex="1">
          <mxGeometry y="90" width="100" height="30" as="geometry" />
        </mxCell>
        <mxCell id="8cLc6BH1WFFABob_ZuYg-62" value="List" style="swimlane;fontStyle=0;childLayout=stackLayout;horizontal=1;startSize=30;horizontalStack=0;resizeParent=1;resizeParentMax=0;resizeLast=0;collapsible=1;marginBottom=0;whiteSpace=wrap;html=1;" parent="1" vertex="1">
          <mxGeometry x="560" y="170" width="100" height="60" as="geometry" />
        </mxCell>
        <mxCell id="svqt2gbtiOX3JFMTlLOE-26" value="Nome regioes" style="text;strokeColor=none;fillColor=none;align=left;verticalAlign=middle;spacingLeft=4;spacingRight=4;overflow=hidden;points=[[0,0.5],[1,0.5]];portConstraint=eastwest;rotatable=0;whiteSpace=wrap;html=1;" parent="8cLc6BH1WFFABob_ZuYg-62" vertex="1">
          <mxGeometry y="30" width="100" height="30" as="geometry" />
        </mxCell>
        <mxCell id="8cLc6BH1WFFABob_ZuYg-15" value="Regiões &lt;br&gt;Visitadas" style="shape=associativeEntity;whiteSpace=wrap;html=1;align=center;" parent="1" vertex="1">
          <mxGeometry x="560" y="140" width="100" height="60" as="geometry" />
        </mxCell>
        <mxCell id="8cLc6BH1WFFABob_ZuYg-69" value="&lt;i&gt;com&lt;/i&gt;" style="edgeStyle=orthogonalEdgeStyle;rounded=0;orthogonalLoop=1;jettySize=auto;html=1;endArrow=none;endFill=0;" parent="1" source="8cLc6BH1WFFABob_ZuYg-66" target="W9jZJQIDUN-E1ysLY_Tf-61" edge="1">
          <mxGeometry x="0.7861" y="15" relative="1" as="geometry">
            <Array as="points">
              <mxPoint x="1580" y="692" />
              <mxPoint x="1580" y="645" />
            </Array>
            <mxPoint as="offset" />
          </mxGeometry>
        </mxCell>
        <mxCell id="8cLc6BH1WFFABob_ZuYg-79" value="1" style="edgeLabel;html=1;align=center;verticalAlign=middle;resizable=0;points=[];" parent="8cLc6BH1WFFABob_ZuYg-69" vertex="1" connectable="0">
          <mxGeometry x="-0.0589" y="-3" relative="1" as="geometry">
            <mxPoint x="32" y="-39" as="offset" />
          </mxGeometry>
        </mxCell>
        <mxCell id="8cLc6BH1WFFABob_ZuYg-76" value="1" style="edgeStyle=orthogonalEdgeStyle;rounded=0;orthogonalLoop=1;jettySize=auto;html=1;endArrow=none;endFill=0;jumpStyle=sharp;exitX=0.498;exitY=0.858;exitDx=0;exitDy=0;exitPerimeter=0;" parent="1" source="8cLc6BH1WFFABob_ZuYg-66" target="EP_qLhoWPCY1FDuJNaD8-5" edge="1">
          <mxGeometry x="0.9805" y="-10" relative="1" as="geometry">
            <Array as="points">
              <mxPoint x="1430" y="750" />
              <mxPoint x="310" y="750" />
            </Array>
            <mxPoint as="offset" />
          </mxGeometry>
        </mxCell>
        <mxCell id="8cLc6BH1WFFABob_ZuYg-66" value="Interage" style="html=1;whiteSpace=wrap;aspect=fixed;shape=isoRectangle;rounded=0;shadow=0;glass=0;strokeColor=default;align=center;verticalAlign=middle;fontFamily=Helvetica;fontSize=12;fontColor=default;startSize=30;fillColor=default;direction=east;" parent="1" vertex="1">
          <mxGeometry x="1380" y="656" width="100" height="72" as="geometry" />
        </mxCell>
        <mxCell id="8cLc6BH1WFFABob_ZuYg-70" value="1" style="edgeStyle=orthogonalEdgeStyle;rounded=0;orthogonalLoop=1;jettySize=auto;html=1;exitX=0.5;exitY=0;exitDx=0;exitDy=0;entryX=0.501;entryY=0.107;entryDx=0;entryDy=0;entryPerimeter=0;endArrow=none;endFill=0;" parent="1" source="EP_qLhoWPCY1FDuJNaD8-1" target="W9jZJQIDUN-E1ysLY_Tf-120" edge="1">
          <mxGeometry x="-0.6537" y="-10" relative="1" as="geometry">
            <mxPoint x="-2" y="2" as="offset" />
          </mxGeometry>
        </mxCell>
        <mxCell id="8cLc6BH1WFFABob_ZuYg-74" value="1" style="edgeStyle=orthogonalEdgeStyle;rounded=0;orthogonalLoop=1;jettySize=auto;html=1;endArrow=none;endFill=0;exitX=0.029;exitY=0.495;exitDx=0;exitDy=0;exitPerimeter=0;" parent="1" source="8cLc6BH1WFFABob_ZuYg-71" target="EP_qLhoWPCY1FDuJNaD8-5" edge="1">
          <mxGeometry x="0.8082" y="-10" relative="1" as="geometry">
            <Array as="points">
              <mxPoint x="280" y="425" />
            </Array>
            <mxPoint as="offset" />
          </mxGeometry>
        </mxCell>
        <mxCell id="8cLc6BH1WFFABob_ZuYg-75" value="1" style="edgeStyle=orthogonalEdgeStyle;rounded=0;orthogonalLoop=1;jettySize=auto;html=1;jumpStyle=sharp;endArrow=none;endFill=0;" parent="1" source="8cLc6BH1WFFABob_ZuYg-71" target="W9jZJQIDUN-E1ysLY_Tf-101" edge="1">
          <mxGeometry x="0.9298" y="-10" relative="1" as="geometry">
            <Array as="points">
              <mxPoint x="140" y="425" />
            </Array>
            <mxPoint as="offset" />
          </mxGeometry>
        </mxCell>
        <mxCell id="8cLc6BH1WFFABob_ZuYg-82" value="1" style="edgeStyle=orthogonalEdgeStyle;rounded=0;orthogonalLoop=1;jettySize=auto;html=1;jumpStyle=sharp;endArrow=none;endFill=0;exitX=0.492;exitY=0.116;exitDx=0;exitDy=0;exitPerimeter=0;" parent="1" source="8cLc6BH1WFFABob_ZuYg-71" target="8cLc6BH1WFFABob_ZuYg-43" edge="1">
          <mxGeometry x="0.9714" y="-10" relative="1" as="geometry">
            <Array as="points">
              <mxPoint x="201" y="770" />
              <mxPoint x="1130" y="770" />
            </Array>
            <mxPoint as="offset" />
          </mxGeometry>
        </mxCell>
        <mxCell id="8cLc6BH1WFFABob_ZuYg-71" value="Conversa" style="html=1;whiteSpace=wrap;aspect=fixed;shape=isoRectangle;rounded=0;shadow=0;glass=0;strokeColor=default;align=center;verticalAlign=middle;fontFamily=Helvetica;fontSize=12;fontColor=default;startSize=30;fillColor=default;direction=west;" parent="1" vertex="1">
          <mxGeometry x="150" y="389" width="100" height="72" as="geometry" />
        </mxCell>
        <mxCell id="8cLc6BH1WFFABob_ZuYg-77" value="0..1" style="edgeStyle=orthogonalEdgeStyle;rounded=0;orthogonalLoop=1;jettySize=auto;html=1;exitX=1;exitY=0.5;exitDx=0;exitDy=0;endArrow=none;endFill=0;jumpStyle=sharp;" parent="1" source="EP_qLhoWPCY1FDuJNaD8-87" target="8cLc6BH1WFFABob_ZuYg-66" edge="1">
          <mxGeometry x="-0.9639" y="-15" relative="1" as="geometry">
            <Array as="points">
              <mxPoint x="970" y="395" />
              <mxPoint x="970" y="692" />
            </Array>
            <mxPoint as="offset" />
          </mxGeometry>
        </mxCell>
        <mxCell id="8cLc6BH1WFFABob_ZuYg-78" value="&lt;i&gt;utilizando&lt;/i&gt;" style="edgeLabel;html=1;align=center;verticalAlign=middle;resizable=0;points=[];" parent="8cLc6BH1WFFABob_ZuYg-77" vertex="1" connectable="0">
          <mxGeometry x="-0.8702" y="3" relative="1" as="geometry">
            <mxPoint x="-19" y="-9" as="offset" />
          </mxGeometry>
        </mxCell>
        <mxCell id="8cLc6BH1WFFABob_ZuYg-88" value="1" style="edgeStyle=orthogonalEdgeStyle;rounded=0;orthogonalLoop=1;jettySize=auto;html=1;endArrow=none;endFill=0;jumpStyle=sharp;" parent="1" source="8cLc6BH1WFFABob_ZuYg-87" target="EP_qLhoWPCY1FDuJNaD8-47" edge="1">
          <mxGeometry x="0.4717" y="12" relative="1" as="geometry">
            <Array as="points">
              <mxPoint x="1340" y="654" />
              <mxPoint x="1340" y="810" />
              <mxPoint x="1910" y="810" />
              <mxPoint x="1910" y="584" />
            </Array>
            <mxPoint as="offset" />
          </mxGeometry>
        </mxCell>
        <mxCell id="8cLc6BH1WFFABob_ZuYg-89" value="0..1" style="edgeStyle=orthogonalEdgeStyle;rounded=0;orthogonalLoop=1;jettySize=auto;html=1;jumpStyle=sharp;endArrow=none;endFill=0;exitX=0.499;exitY=0.9;exitDx=0;exitDy=0;exitPerimeter=0;" parent="1" source="8cLc6BH1WFFABob_ZuYg-87" target="8cLc6BH1WFFABob_ZuYg-39" edge="1">
          <mxGeometry x="0.2063" y="-20" relative="1" as="geometry">
            <mxPoint x="1920" y="800" as="targetPoint" />
            <Array as="points">
              <mxPoint x="1280" y="620" />
              <mxPoint x="1280" y="620" />
            </Array>
            <mxPoint as="offset" />
          </mxGeometry>
        </mxCell>
        <mxCell id="8cLc6BH1WFFABob_ZuYg-90" style="edgeStyle=orthogonalEdgeStyle;rounded=0;orthogonalLoop=1;jettySize=auto;html=1;endArrow=none;endFill=0;jumpStyle=sharp;" parent="1" source="8cLc6BH1WFFABob_ZuYg-87" target="EP_qLhoWPCY1FDuJNaD8-5" edge="1">
          <mxGeometry relative="1" as="geometry">
            <mxPoint x="340" y="390" as="targetPoint" />
            <Array as="points">
              <mxPoint x="1210" y="654" />
              <mxPoint x="1210" y="810" />
              <mxPoint x="340" y="810" />
            </Array>
            <mxPoint x="1330" y="866.0285714285715" as="sourcePoint" />
          </mxGeometry>
        </mxCell>
        <mxCell id="8cLc6BH1WFFABob_ZuYg-91" value="1" style="edgeLabel;html=1;align=center;verticalAlign=middle;resizable=0;points=[];" parent="8cLc6BH1WFFABob_ZuYg-90" vertex="1" connectable="0">
          <mxGeometry x="0.9737" y="-3" relative="1" as="geometry">
            <mxPoint x="7" y="-9" as="offset" />
          </mxGeometry>
        </mxCell>
        <mxCell id="8cLc6BH1WFFABob_ZuYg-87" value="Entra&lt;br&gt;1ª vez" style="html=1;whiteSpace=wrap;aspect=fixed;shape=isoRectangle;rounded=0;shadow=0;glass=0;strokeColor=default;align=center;verticalAlign=middle;fontFamily=Helvetica;fontSize=12;fontColor=default;startSize=30;fillColor=default;direction=west;" parent="1" vertex="1">
          <mxGeometry x="1230" y="618" width="100" height="72" as="geometry" />
        </mxCell>
        <mxCell id="svqt2gbtiOX3JFMTlLOE-22" style="edgeStyle=orthogonalEdgeStyle;rounded=0;orthogonalLoop=1;jettySize=auto;html=1;entryX=0;entryY=0.5;entryDx=0;entryDy=0;endArrow=none;endFill=0;" parent="1" source="svqt2gbtiOX3JFMTlLOE-21" target="W9jZJQIDUN-E1ysLY_Tf-283" edge="1">
          <mxGeometry relative="1" as="geometry">
            <Array as="points">
              <mxPoint x="2030" y="679.9999999999999" />
              <mxPoint x="2030" y="629" />
            </Array>
          </mxGeometry>
        </mxCell>
        <mxCell id="svqt2gbtiOX3JFMTlLOE-24" value="0..3" style="edgeLabel;html=1;align=center;verticalAlign=middle;resizable=0;points=[];" parent="svqt2gbtiOX3JFMTlLOE-22" vertex="1" connectable="0">
          <mxGeometry x="0.7573" y="1" relative="1" as="geometry">
            <mxPoint x="-9" y="-11" as="offset" />
          </mxGeometry>
        </mxCell>
        <mxCell id="svqt2gbtiOX3JFMTlLOE-23" value="1" style="edgeStyle=orthogonalEdgeStyle;rounded=0;orthogonalLoop=1;jettySize=auto;html=1;endArrow=none;endFill=0;" parent="1" source="svqt2gbtiOX3JFMTlLOE-21" target="W9jZJQIDUN-E1ysLY_Tf-283" edge="1">
          <mxGeometry x="0.7812" y="-9" relative="1" as="geometry">
            <Array as="points">
              <mxPoint x="2170" y="680" />
              <mxPoint x="2170" y="629" />
            </Array>
            <mxPoint as="offset" />
          </mxGeometry>
        </mxCell>
        <mxCell id="svqt2gbtiOX3JFMTlLOE-21" value="Conecta" style="html=1;whiteSpace=wrap;aspect=fixed;shape=isoRectangle;rounded=0;shadow=0;glass=0;strokeColor=default;align=center;verticalAlign=middle;fontFamily=Helvetica;fontSize=12;fontColor=default;startSize=30;fillColor=default;direction=west;" parent="1" vertex="1">
          <mxGeometry x="2050" y="644" width="100" height="72" as="geometry" />
        </mxCell>
        <mxCell id="svqt2gbtiOX3JFMTlLOE-28" style="rounded=0;orthogonalLoop=1;jettySize=auto;html=1;exitX=0;exitY=0;exitDx=0;exitDy=0;endArrow=none;endFill=0;" parent="1" source="svqt2gbtiOX3JFMTlLOE-27" edge="1">
          <mxGeometry relative="1" as="geometry">
            <mxPoint x="2121" y="697" as="targetPoint" />
          </mxGeometry>
        </mxCell>
        <mxCell id="svqt2gbtiOX3JFMTlLOE-27" value="Tipo" style="ellipse;whiteSpace=wrap;html=1;align=center;" parent="1" vertex="1">
          <mxGeometry x="2140" y="750" width="100" height="40" as="geometry" />
        </mxCell>
      </root>
    </mxGraphModel>
  </diagram>
</mxfile>
